<svg id="Livello_1" data-name="Livello 1" xmlns="http://www.w3.org/2000/svg" viewBox="0 0 496.54 406.01"><defs><style>.cls-1,.cls-9{fill:#0099cd;}.cls-1,.cls-2{stroke:#fcc016;stroke-miterlimit:10;stroke-width:2px;}.cls-2{fill:none;}.cls-3{font-size:11px;}.cls-3,.cls-6{fill:#fff;}.cls-3,.cls-6,.cls-9{font-family:Arial-BoldMT, Arial;font-weight:700;}.cls-4{letter-spacing:-0.07em;}.cls-5{letter-spacing:-0.02em;}.cls-6{font-size:12px;}.cls-7{letter-spacing:-0.04em;}.cls-8{fill:#fcc016;}.cls-9{font-size:9px;}</style></defs><polygon class="cls-1" points="260.31 10.23 46.34 405.01 474.29 405.01 260.31 10.23"/><line class="cls-2" x1="188.52" y1="142.68" x2="332.15" y2="142.76"/><line class="cls-2" x1="115.37" y1="277.64" x2="405.34" y2="277.8"/><text class="cls-3" transform="translate(224.27 107.51)">DIGI<tspan class="cls-4" x="22.61" y="0">T</tspan><tspan x="28.52" y="0">A</tspan><tspan class="cls-5" x="36.46" y="0">L</tspan><tspan x="42.98" y="0" xml:space="preserve"> RISK</tspan><tspan x="-1.74" y="13.2">ASSESSMENT</tspan></text><text class="cls-6" transform="translate(204.84 206.15)">REGUL<tspan class="cls-4" x="42" y="0">A</tspan><tspan class="cls-5" x="49.78" y="0">T</tspan><tspan x="56.89" y="0">O</tspan><tspan class="cls-7" x="66.22" y="0">R</tspan><tspan class="cls-5" x="74.44" y="0">Y</tspan><tspan class="cls-7" x="82.23" y="0"> </tspan><tspan x="85.12" y="0">AND</tspan><tspan x="-23.66" y="14.4">S</tspan><tspan class="cls-4" x="-15.65" y="14.4">T</tspan><tspan x="-9.21" y="14.4">ANDARD FRAMEWORKS</tspan></text><text class="cls-6" transform="translate(164.72 341.25)">BASIC PRINCIPLE<tspan class="cls-7" x="104.68" y="0"> </tspan><tspan x="107.57" y="0">AND HYGIENE</tspan></text><line class="cls-2" x1="492.06" y1="16.68" x2="492.06" y2="136.26"/><polygon class="cls-8" points="487.57 18 492.06 10.23 496.54 18 487.57 18"/><polygon class="cls-8" points="487.57 134.95 492.06 142.72 496.54 134.95 487.57 134.95"/><line class="cls-2" x1="492.06" y1="149.18" x2="492.06" y2="398.55"/><polygon class="cls-8" points="487.57 150.49 492.06 142.72 496.54 150.49 487.57 150.49"/><polygon class="cls-8" points="487.57 397.24 492.06 405.01 496.54 397.24 487.57 397.24"/><text class="cls-9" transform="translate(377.98 73.98)">APPROACH THROUGH<tspan x="18.5" y="10.8">“SCENARIOS”</tspan></text><text class="cls-9" transform="translate(377.98 173)">APPROACH THROUGH<tspan x="15" y="10.8">“CONFORMITY”</tspan></text><polygon class="cls-1" points="27.97 405.01 1 405.01 1 277.72 14.48 268.7 27.97 277.72 27.97 405.01"/><polygon class="cls-1" points="27.97 271.91 14.48 262.89 1 271.91 1 140.77 14.48 131.74 27.97 140.77 27.97 271.91"/><polygon class="cls-1" points="27.97 134.96 14.48 125.93 1 134.96 1 10.23 14.48 1.2 27.97 10.23 27.97 134.96"/><text class="cls-6" transform="translate(18.78 359.11) rotate(-90)">SIMPLE</text><text class="cls-6" transform="translate(18.78 243.19) rotate(-90)">ELABOR<tspan class="cls-4" x="50.67" y="0">A</tspan><tspan x="58.44" y="0">TED</tspan></text><text class="cls-6" transform="translate(18.78 101.34) rotate(-90)">AD<tspan class="cls-4" x="17.33" y="0">V</tspan><tspan x="24.45" y="0">ANCED</tspan></text></svg>