<svg id="Livello_1" data-name="Livello 1" xmlns="http://www.w3.org/2000/svg" viewBox="0 0 485.23 485.23"><defs><style>.cls-1,.cls-8{fill:none;}.cls-1,.cls-2,.cls-8{stroke:#fbbf13;stroke-miterlimit:10;}.cls-1{stroke-width:3px;}.cls-2,.cls-9{fill:#0098cd;}.cls-2,.cls-8{stroke-width:2px;}.cls-3{font-size:12.71px;}.cls-12,.cls-3,.cls-6{fill:#fff;}.cls-12,.cls-3,.cls-6,.cls-9{font-family:Arial-BoldMT, Arial;font-weight:700;}.cls-4{letter-spacing:-0.07em;}.cls-5{letter-spacing:-0.02em;}.cls-6,.cls-9{font-size:11.65px;}.cls-7{letter-spacing:-0.07em;}.cls-10{letter-spacing:-0.04em;}.cls-11{letter-spacing:-0.11em;}.cls-12{font-size:13px;}.cls-13{letter-spacing:-0.07em;}.cls-14{letter-spacing:0em;}.cls-15{letter-spacing:-0.09em;}.cls-16{fill:#0099ce;}</style></defs><circle class="cls-1" cx="242.62" cy="242.87" r="230.56"/><polygon class="cls-2" points="132.54 75.31 143.9 214.64 132.54 353.96 95.26 353.96 95.26 75.31 132.54 75.31"/><text class="cls-3" transform="translate(118.41 326.59) rotate(-90)">COMMUNIC<tspan class="cls-4" x="71.32" y="0">A</tspan><tspan x="79.56" y="0">TION &amp; CONSU</tspan><tspan class="cls-4" x="172.08" y="0">LTA</tspan><tspan x="193.96" y="0">TION</tspan></text><polygon class="cls-2" points="352.69 353.96 341.33 214.64 352.69 75.31 389.97 75.31 389.97 353.96 352.69 353.96"/><text class="cls-3" transform="translate(366.82 140.45) rotate(90)">MONI<tspan class="cls-5" x="33.19" y="0">T</tspan><tspan x="40.73" y="0">ORING &amp; REVIEW</tspan></text><polygon class="cls-2" points="389.04 410.43 95.26 410.43 95.26 373.15 242.15 364.99 389.04 373.15 389.04 410.43"/><text class="cls-6" transform="translate(164.39 395.93)">RECORDING &amp; REPORTING</text><rect class="cls-2" x="158.3" y="316.68" width="168.2" height="37.28"/><text class="cls-3" transform="translate(186.73 338.71)">RISK TRE<tspan class="cls-7" x="59.33" y="0">A</tspan><tspan x="67.57" y="0">TMENT</tspan></text><rect class="cls-8" x="158.3" y="118.2" width="168.2" height="189.66"/><text class="cls-9" transform="translate(186.93 134.92)">RISK<tspan class="cls-10" x="27.84" y="0"> </tspan><tspan x="30.65" y="0">ASSESSMENT</tspan></text><rect class="cls-2" x="158.3" y="75.31" width="168.2" height="37.28"/><text class="cls-6" transform="translate(161.04 97.34)">SCOPE, CONTEX<tspan class="cls-11" x="95.83" y="0">T</tspan><tspan x="101.66" y="0">, CRITERI</tspan><tspan class="cls-10" x="154.75" y="0">A</tspan></text><polygon class="cls-2" points="314.79 181.41 242.66 187.87 170.02 181.41 170.02 144.13 242.66 150.59 314.79 144.13 314.79 181.41"/><text class="cls-12" transform="translate(190.97 170.65)">IDENTIFIC<tspan class="cls-13" x="63.55" y="0">A</tspan><tspan class="cls-14" x="71.98" y="0">TION</tspan></text><polygon class="cls-2" points="314.79 230.05 242.66 236.51 170.02 230.05 170.02 192.77 242.66 199.23 314.79 192.77 314.79 230.05"/><text class="cls-12" transform="translate(210.46 219.29)">ANA<tspan class="cls-15" x="28.16" y="0">L</tspan><tspan x="34.91" y="0">YSIS</tspan></text><polygon class="cls-2" points="314.79 282.74 242.66 289.2 170.02 282.74 170.02 245.46 242.66 251.93 314.79 245.46 314.79 282.74"/><text class="cls-12" transform="translate(201.17 271.99)">E<tspan class="cls-13" x="8.67" y="0">V</tspan><tspan x="16.38" y="0">ALU</tspan><tspan class="cls-13" x="43.09" y="0">A</tspan><tspan x="51.52" y="0">TION</tspan></text><polygon class="cls-16" points="232.25 23.94 252.98 11.97 232.25 0 232.25 23.94"/><polygon class="cls-16" points="252.98 461.29 232.25 473.26 252.98 485.23 252.98 461.29"/><polygon class="cls-16" points="23.94 252.98 11.97 232.25 0 252.98 23.94 252.98"/><polygon class="cls-16" points="461.29 232.25 473.26 252.98 485.23 232.25 461.29 232.25"/></svg>