<svg id="Livello_1" data-name="Livello 1" xmlns="http://www.w3.org/2000/svg" viewBox="0 0 458.81 458.81"><defs><style>.cls-1,.cls-8{fill:#0099ce;}.cls-1,.cls-2{stroke:#fcc016;stroke-miterlimit:10;stroke-width:2px;}.cls-2{fill:none;}.cls-3{fill:#fcc016;}.cls-4{font-size:17.73px;}.cls-4,.cls-6{fill:#fff;}.cls-4,.cls-6,.cls-8{font-family:Arial-BoldMT, Arial;font-weight:700;}.cls-5{letter-spacing:-0.07em;}.cls-6{font-size:15px;}.cls-7{letter-spacing:-0.02em;}.cls-8{font-size:16px;}.cls-9{letter-spacing:-0.07em;}.cls-10{letter-spacing:0em;}.cls-11{letter-spacing:-0.02em;}.cls-12{letter-spacing:-0.06em;}</style></defs><circle class="cls-1" cx="229.4" cy="229.4" r="228.4"/><line class="cls-2" x1="1" y1="229.4" x2="457.81" y2="229.4"/><line class="cls-2" x1="229.4" y1="457.81" x2="229.4" y2="1"/><line class="cls-2" x1="390.91" y1="390.91" x2="67.9" y2="67.9"/><line class="cls-2" x1="390.91" y1="67.9" x2="67.9" y2="390.91"/><circle class="cls-3" cx="229.4" cy="229.4" r="79.7"/><text class="cls-4" transform="translate(239.16 81.41)">INTEGR<tspan class="cls-5" x="66.99" y="0">A</tspan><tspan x="78.48" y="0">TED</tspan></text><text class="cls-6" transform="translate(326.58 164.23)">STRUCTURED<tspan x="46.25" y="18">&amp;</tspan><tspan x="-14.18" y="36">COMPREHENSIVE</tspan></text><text class="cls-4" transform="translate(316.89 286.85)">CUS<tspan class="cls-7" x="37.44" y="0">T</tspan><tspan x="47.95" y="0">OMIZED</tspan></text><text class="cls-4" transform="translate(250.16 382.9)">INCLUSIVE</text><text class="cls-8" transform="translate(160.12 215.93)"><tspan class="cls-9">V</tspan><tspan x="9.48" y="0">ALUE CRE</tspan><tspan class="cls-9" x="91.27" y="0">A</tspan><tspan x="101.63" y="0">TION</tspan><tspan x="64.15" y="19.2">&amp;</tspan><tspan x="17.48" y="38.4">PROTECTION</tspan></text><text class="cls-4" transform="translate(45.8 164.03)">HUMAN<tspan x="-23.31" y="21.28">&amp; CU</tspan><tspan class="cls-5" x="20.03" y="21.28">L</tspan><tspan class="cls-10" x="29.55" y="21.28">TURA</tspan><tspan class="cls-11" x="78.79" y="21.28">L</tspan><tspan x="89.3" y="21.28"></tspan><tspan class="cls-12" x="-9.2" y="42.56">F</tspan><tspan x="0.65" y="42.56">AC</tspan><tspan class="cls-11" x="26.26" y="42.56">T</tspan><tspan x="36.77" y="42.56">ORS</tspan></text><text class="cls-4" transform="translate(62.09 260.62)">BEST<tspan class="cls-5" x="-25.77" y="21.28">AV</tspan><tspan x="-3.77" y="21.28">AILABLE</tspan><tspan x="-38.24" y="42.56">INFORM</tspan><tspan class="cls-5" x="31.69" y="42.56">A</tspan><tspan x="43.18" y="42.56">TION</tspan></text><text class="cls-4" transform="translate(126.74 383.13)">DYNAMIC</text><text class="cls-4" transform="translate(106.55 59.9)">CONTINUA<tspan class="cls-11" x="93.58" y="0">L</tspan><tspan x="-13.96" y="21.28">IMPROVEMENT</tspan></text></svg>