<svg id="Livello_1" data-name="Livello 1" xmlns="http://www.w3.org/2000/svg" viewBox="0 0 366.08 491.28"><defs><style>.cls-1,.cls-3{fill:none;}.cls-1{stroke:#0099ce;}.cls-1,.cls-3,.cls-4{stroke-miterlimit:10;stroke-width:2px;}.cls-12,.cls-18,.cls-2,.cls-4{fill:#0099ce;}.cls-3,.cls-4{stroke:#fcc016;}.cls-5{font-size:12px;fill:#fff;}.cls-12,.cls-15,.cls-18,.cls-5{font-family:Arial-BoldMT, Arial;font-weight:700;}.cls-6{letter-spacing:-0.07em;}.cls-7{letter-spacing:-0.04em;}.cls-8{letter-spacing:-0.02em;}.cls-9{letter-spacing:-0.09em;}.cls-10{letter-spacing:-0.07em;}.cls-11{letter-spacing:0em;}.cls-12{font-size:9.07px;}.cls-13{letter-spacing:-0.04em;}.cls-14{letter-spacing:0em;}.cls-15{font-size:8.19px;fill:#009fe3;}.cls-16{letter-spacing:-0.06em;}.cls-17{letter-spacing:-0.07em;}.cls-18{font-size:8.63px;}</style></defs><polyline class="cls-1" points="13.54 46.76 13.54 1 352.54 1 352.54 46.76"/><line class="cls-1" x1="144.99" y1="40.56" x2="144.99" y2="0.58"/><polygon class="cls-2" points="148.48 39.53 144.99 45.58 141.5 39.53 148.48 39.53"/><rect class="cls-3" x="63.05" y="84.65" width="214.11" height="187.69"/><polyline class="cls-1" points="13.54 432.46 13.54 460.29 84.36 460.29 352.54 460.29"/><polygon class="cls-2" points="10.05 433.48 13.54 427.44 17.03 433.48 10.05 433.48"/><line class="cls-1" x1="33.85" y1="353.5" x2="76.59" y2="353.5"/><polygon class="cls-2" points="34.87 356.99 28.82 353.5 34.87 350.01 34.87 356.99"/><polygon class="cls-2" points="75.57 356.99 81.61 353.5 75.57 350.01 75.57 356.99"/><line class="cls-1" x1="315.83" y1="357.8" x2="263.69" y2="357.8"/><polygon class="cls-2" points="264.71 354.31 258.66 357.8 264.71 361.29 264.71 354.31"/><line class="cls-1" x1="170.11" y1="245.97" x2="170.11" y2="284.5"/><rect class="cls-1" x="286.13" y="302.76" width="23.01" height="23.01" transform="translate(-262.57 288.46) rotate(-45)"/><line class="cls-1" x1="255.43" y1="346.05" x2="332.52" y2="346.05"/><polygon class="cls-2" points="331.5 349.54 337.54 346.05 331.5 342.56 331.5 349.54"/><rect class="cls-1" x="286.13" y="406.36" width="23.01" height="23.01" transform="translate(-335.82 318.8) rotate(-45)"/><line class="cls-1" x1="170.11" y1="387.54" x2="170.11" y2="366.65"/><line class="cls-1" x1="170.11" y1="210.21" x2="170.11" y2="191.29"/><polygon class="cls-2" points="173.6 209.19 170.11 215.23 166.62 209.19 173.6 209.19"/><line class="cls-1" x1="170.11" y1="156.54" x2="170.11" y2="129.63"/><polygon class="cls-2" points="173.6 155.52 170.11 161.57 166.62 155.52 173.6 155.52"/><line class="cls-1" x1="170.11" y1="103.83" x2="170.11" y2="74.42"/><polygon class="cls-2" points="173.6 102.8 170.11 108.85 166.62 102.8 173.6 102.8"/><rect class="cls-4" x="1" y="47.77" width="25.08" height="378.61"/><text class="cls-5" transform="translate(17.83 367.35) rotate(-90)">RISK COMMUNIC<tspan class="cls-6" x="99.33" y="0">A</tspan><tspan x="107.1" y="0">TION</tspan><tspan class="cls-7" x="135.77" y="0"> </tspan><tspan x="138.66" y="0">AND CONSU</tspan><tspan class="cls-6" x="211.32" y="0">LTA</tspan><tspan x="231.98" y="0">TION</tspan></text><rect class="cls-4" x="340" y="47.77" width="25.08" height="378.61"/><text class="cls-5" transform="translate(356.83 316.16) rotate(-90)">MONI<tspan class="cls-8" x="31.33" y="0">T</tspan><tspan x="38.44" y="0">ORING</tspan><tspan class="cls-7" x="77.78" y="0"> </tspan><tspan x="80.67" y="0">AND REVIEW</tspan></text><rect class="cls-4" x="84.36" y="47.77" width="171.51" height="28.31"/><text class="cls-5" transform="translate(89.06 66.22)">CONTEXT ES<tspan class="cls-6" x="76.68" y="0">T</tspan><tspan x="83.12" y="0">ABLISHMENT</tspan></text><rect class="cls-4" x="84.36" y="111.02" width="171.51" height="28.31"/><text class="cls-5" transform="translate(106.6 129.48)">RISK IDENTIFIC<tspan class="cls-6" x="90.67" y="0">A</tspan><tspan x="98.44" y="0">TION</tspan></text><rect class="cls-4" x="84.36" y="164.34" width="171.51" height="28.31"/><text class="cls-5" transform="translate(124.41 182.79)">RISK<tspan class="cls-7" x="28.67" y="0"> </tspan><tspan x="31.56" y="0">ANA</tspan><tspan class="cls-9" x="57.56" y="0">L</tspan><tspan x="63.79" y="0">YSIS</tspan></text><rect class="cls-4" x="84.36" y="217.65" width="171.51" height="28.31"/><text class="cls-5" transform="translate(116.04 236.11)">RISK E<tspan class="cls-6" x="40.01" y="0">V</tspan><tspan x="47.12" y="0">ALU</tspan><tspan class="cls-10" x="71.78" y="0">A</tspan><tspan class="cls-11" x="79.56" y="0">TION</tspan></text><rect class="cls-4" x="84.36" y="339.34" width="171.51" height="28.31"/><text class="cls-5" transform="translate(117.24 357.8)">RISK TRE<tspan class="cls-6" x="56" y="0">A</tspan><tspan x="63.78" y="0">TMENT</tspan></text><rect class="cls-4" x="84.36" y="446.13" width="171.51" height="28.31"/><text class="cls-5" transform="translate(112.97 464.58)">RISK<tspan class="cls-7" x="28.67" y="0"> </tspan><tspan x="31.56" y="0">ACCEP</tspan><tspan class="cls-10" x="73.56" y="0">T</tspan><tspan class="cls-11" x="80" y="0">ANCE</tspan></text><line class="cls-1" x1="33.85" y1="61.93" x2="76.59" y2="61.93"/><polygon class="cls-2" points="34.87 65.42 28.82 61.93 34.87 58.44 34.87 65.42"/><polygon class="cls-2" points="75.57 65.42 81.61 61.93 75.57 58.44 75.57 65.42"/><line class="cls-1" x1="33.85" y1="182.75" x2="54.63" y2="182.75"/><polygon class="cls-2" points="34.87 186.24 28.82 182.75 34.87 179.26 34.87 186.24"/><polygon class="cls-2" points="53.61 186.24 59.65 182.75 53.61 179.26 53.61 186.24"/><line class="cls-1" x1="170.11" y1="331.68" x2="170.11" y2="316.16"/><polygon class="cls-2" points="173.6 330.66 170.11 336.7 166.62 330.66 173.6 330.66"/><line class="cls-1" x1="170.11" y1="437.78" x2="170.11" y2="420.08"/><polygon class="cls-2" points="173.6 436.76 170.11 442.8 166.62 436.76 173.6 436.76"/><line class="cls-1" x1="352.54" y1="433.4" x2="352.54" y2="461.23"/><polygon class="cls-2" points="349.05 434.42 352.54 428.38 356.03 434.42 349.05 434.42"/><polyline class="cls-1" points="186.38 300.21 292.24 300.21 292.24 24.88 195.11 24.88 195.11 40.55"/><polygon class="cls-2" points="191.62 39.53 195.11 45.58 198.6 39.53 191.62 39.53"/><polyline class="cls-1" points="186.38 403.81 315.83 403.81 315.83 12.73 170.11 12.73 170.11 40.55"/><polygon class="cls-2" points="166.62 39.53 170.11 45.58 173.6 39.53 166.62 39.53"/><text class="cls-12" transform="translate(69.21 99.23)">RISK<tspan class="cls-13" x="21.68" y="0"> </tspan><tspan class="cls-14" x="23.86" y="0">ASSESSMENT</tspan></text><text class="cls-12" transform="translate(39.12 297.48)">RISK DECISION POINT 1</text><text class="cls-15" transform="translate(46.94 307.64)">Assessment satisfactory</text><text class="cls-12" transform="translate(42.36 401.08)">RISK DECISION POINT 2</text><text class="cls-15" transform="translate(60.46 411.24)"><tspan class="cls-16">T</tspan><tspan x="4.55" y="0">reatment satisfactory</tspan></text><text class="cls-12" transform="translate(69.28 487.86)">END OF FIRST OR SUBSEQUENT ITER<tspan class="cls-17" x="167.85" y="0">A</tspan><tspan x="173.73" y="0">TIONS</tspan></text><text class="cls-18" transform="translate(190.53 401.08)">NO</text><text class="cls-18" transform="translate(189.16 297.59)">NO</text><text class="cls-18" transform="translate(173.37 431.44)">YES</text><text class="cls-18" transform="translate(173.36 326.43)">YES</text></svg>