<svg id="Livello_1" data-name="Livello 1" xmlns="http://www.w3.org/2000/svg" viewBox="0 0 493.33 398.9"><defs><style>.cls-1,.cls-4{fill:none;}.cls-1,.cls-5{stroke:#fcc016;}.cls-1,.cls-4,.cls-5{stroke-miterlimit:10;stroke-width:2px;}.cls-2{font-size:9.07px;}.cls-2,.cls-5,.cls-8{fill:#0099ce;}.cls-13,.cls-2,.cls-6,.cls-8{font-family:Arial-BoldMT, Arial;font-weight:700;}.cls-3{letter-spacing:-0.07em;}.cls-4{stroke:#0099ce;}.cls-13,.cls-6,.cls-8{font-size:12px;}.cls-6{fill:#fff;}.cls-7{letter-spacing:-0.07em;}.cls-9{letter-spacing:-0.06em;}.cls-10{letter-spacing:-0.02em;}.cls-11{letter-spacing:-0.04em;}.cls-12{fill:#fcc016;}.cls-13{fill:#1d1d1b;}</style></defs><rect class="cls-1" x="1" y="121.03" width="491.33" height="218.43"/><text class="cls-2" transform="translate(8.72 136.44)">RISK TRE<tspan class="cls-3" x="42.34" y="0">A</tspan><tspan x="48.22" y="0">TMENT</tspan></text><rect class="cls-4" x="304.46" y="196.03" width="115.59" height="69.03"/><rect class="cls-4" x="73.28" y="196.03" width="115.59" height="69.03"/><rect class="cls-4" x="239.84" y="260.59" width="115.59" height="69.03" transform="translate(544.3 525.66) rotate(180)"/><rect class="cls-5" x="251.66" y="210.73" width="105.59" height="39.64"/><text class="cls-6" transform="translate(290.18 227.64)">RISK<tspan x="-13.33" y="14.4">SHARING</tspan></text><rect class="cls-5" x="136.08" y="210.73" width="105.59" height="39.64"/><text class="cls-6" transform="translate(174.59 227.64)">RISK<tspan class="cls-7" x="-21.22" y="14.4">A</tspan><tspan x="-13.45" y="14.4">VOIDANCE</tspan></text><rect class="cls-5" x="367.25" y="210.73" width="105.59" height="39.64"/><text class="cls-6" transform="translate(405.77 227.64)">RISK<tspan x="-20.33" y="14.4">RETENTION</tspan></text><rect class="cls-5" x="20.49" y="210.73" width="105.59" height="39.64"/><text class="cls-6" transform="translate(59 227.64)">RISK<tspan x="-29.21" y="14.4">MODIFIC</tspan><tspan class="cls-7" x="21.45" y="14.4">A</tspan><tspan x="29.22" y="14.4">TION</tspan></text><text class="cls-2" transform="translate(316.24 381.45)">RISK DECISION POINT 2</text><rect class="cls-4" x="277.82" y="385.47" width="39.64" height="114.35" transform="translate(-195.98 675.72) rotate(-90)"/><text class="cls-8" transform="translate(200.89 375.18)">S<tspan class="cls-7" x="8" y="0">A</tspan><tspan x="15.78" y="0">TIS</tspan><tspan class="cls-9" x="34.45" y="0">F</tspan><tspan x="41.12" y="0">AC</tspan><tspan class="cls-10" x="58.45" y="0">T</tspan><tspan x="65.56" y="0">O</tspan><tspan class="cls-11" x="74.89" y="0">R</tspan><tspan class="cls-10" x="83.12" y="0">Y</tspan><tspan x="8.9" y="14.4">TRE</tspan><tspan class="cls-7" x="32.9" y="14.4">A</tspan><tspan x="40.68" y="14.4">TMENT</tspan></text><line class="cls-4" x1="246.66" y1="358.26" x2="246.66" y2="265.39"/><ellipse class="cls-12" cx="246.66" cy="303.36" rx="78.05" ry="26.29"/><text class="cls-13" transform="translate(215.79 303.36)">RESIDUA<tspan class="cls-10" x="54.01" y="0">L</tspan><tspan x="12.22" y="14.4">RISKS</tspan></text><line class="cls-4" x1="246.66" y1="196.03" x2="246.66" y2="105.39"/><rect class="cls-5" x="121.68" y="146.98" width="249.96" height="28.31"/><text class="cls-6" transform="translate(165.3 165.44)">RISK TRE<tspan class="cls-7" x="56" y="0">A</tspan><tspan x="63.78" y="0">TMENT OPTIONS</tspan></text><text class="cls-2" transform="translate(315.58 88.31)">RISK DECISION POINT 1</text><rect class="cls-4" x="277.82" y="92.95" width="39.64" height="114.35" transform="translate(96.54 383.2) rotate(-90)"/><text class="cls-8" transform="translate(200.89 82.66)">S<tspan class="cls-7" x="8" y="0">A</tspan><tspan x="15.78" y="0">TIS</tspan><tspan class="cls-9" x="34.45" y="0">F</tspan><tspan x="41.12" y="0">AC</tspan><tspan class="cls-10" x="58.45" y="0">T</tspan><tspan x="65.56" y="0">O</tspan><tspan class="cls-11" x="74.89" y="0">R</tspan><tspan class="cls-10" x="83.12" y="0">Y</tspan><tspan x="4.11" y="14.4">ASSESSMENT</tspan></text><line class="cls-4" x1="246.66" y1="65.75" x2="246.66" y2="3.19"/><ellipse class="cls-12" cx="246.66" cy="26.29" rx="78.05" ry="26.29"/><text class="cls-13" transform="translate(189.23 26.29)">RISK<tspan class="cls-11" x="28.67" y="0"> </tspan><tspan x="31.56" y="0">ASSESSMENT</tspan><tspan x="29.56" y="14.4">RESU</tspan><tspan class="cls-7" x="62.9" y="14.4">L</tspan><tspan x="69.34" y="14.4">TS</tspan></text></svg>