<svg id="Livello_1" data-name="Livello 1" xmlns="http://www.w3.org/2000/svg" viewBox="0 0 586.3 263.61"><defs><style>.cls-1,.cls-2,.cls-3{isolation:isolate;}.cls-2,.cls-3{font-size:9.65px;fill:#0098ce;}.cls-10,.cls-2,.cls-3,.cls-8,.cls-9{font-family:Arial-BoldMT, Arial;font-weight:700;}.cls-3{letter-spacing:-0.04em;}.cls-4,.cls-5{fill:none;}.cls-4{stroke:#fcc019;}.cls-4,.cls-5,.cls-7{stroke-miterlimit:10;stroke-width:2px;}.cls-5{stroke:#0099cf;}.cls-6,.cls-7{fill:#0099cf;}.cls-7{stroke:#fcc01b;}.cls-8{font-size:12px;}.cls-10,.cls-8,.cls-9{fill:#fff;}.cls-9{font-size:9.97px;}.cls-10{font-size:9.91px;}.cls-11{letter-spacing:-0.02em;}.cls-12{letter-spacing:-0.07em;}</style></defs><g class="cls-1"><text class="cls-2" transform="translate(394.53 14.04)">RISK</text><text class="cls-3" transform="translate(417.6 14.04)"> </text><text class="cls-2" transform="translate(419.93 14.04)">ASSESSMENT</text></g><rect class="cls-4" x="380.63" y="1" width="119.73" height="261.61"/><line class="cls-5" x1="164.09" y1="26.09" x2="217.58" y2="26.09"/><polygon class="cls-6" points="216.27 30.58 224.04 26.09 216.27 21.61 216.27 30.58"/><line class="cls-5" x1="164.09" y1="96.57" x2="217.58" y2="96.57"/><polygon class="cls-6" points="216.27 101.06 224.04 96.57 216.27 92.08 216.27 101.06"/><line class="cls-5" x1="164.09" y1="167.04" x2="217.58" y2="167.04"/><polygon class="cls-6" points="216.27 171.53 224.04 167.04 216.27 162.56 216.27 171.53"/><line class="cls-5" x1="164.09" y1="237.52" x2="217.58" y2="237.52"/><polygon class="cls-6" points="216.27 242.01 224.04 237.52 216.27 233.03 216.27 242.01"/><polyline class="cls-5" points="482.83 61.33 529.21 61.33 529.21 103.78"/><polygon class="cls-6" points="524.72 102.47 529.21 110.24 533.7 102.47 524.72 102.47"/><polyline class="cls-5" points="482.83 203.23 529.21 203.23 529.21 160.78"/><polygon class="cls-6" points="533.7 162.09 529.21 154.32 524.72 162.09 533.7 162.09"/><rect class="cls-7" x="1" y="1" width="163.09" height="50.19"/><text class="cls-8" transform="translate(6.14 23.19)">Analysis of the parameters<tspan x="42.03" y="14.4">of the threat</tspan></text><rect class="cls-7" x="1" y="71.48" width="163.09" height="50.19"/><text class="cls-9" transform="translate(9.4 87.19)">Analysis of the dissuasion and<tspan x="-4.71" y="11.96">prevention effects resulting from</tspan><tspan x="-1.12" y="23.93">the existing security measures </tspan></text><rect class="cls-7" x="1" y="141.95" width="163.09" height="50.19"/><text class="cls-9" transform="translate(4.82 157.67)">Analysis of the consequences of<tspan x="1.11" y="11.96">the type of damage for the asset</tspan><tspan x="19.39" y="23.93">(primary and secondary)</tspan></text><rect class="cls-7" x="1" y="212.43" width="163.09" height="50.19"/><text class="cls-9" transform="translate(6.13 228.14)">Analysis of the confinement and<tspan x="2.49" y="11.96">palliation effects resulting from</tspan><tspan x="3.86" y="23.93">the existing security measures</tspan></text><polyline class="cls-5" points="319.41 107.36 360.94 107.36 360.94 85.78 387.92 85.78"/><polygon class="cls-6" points="386.61 90.27 394.38 85.78 386.61 81.29 386.61 90.27"/><polyline class="cls-5" points="319.41 15.31 360.94 15.31 360.94 36.88 387.92 36.88"/><polygon class="cls-6" points="386.61 41.37 394.38 36.88 386.61 32.39 386.61 41.37"/><polyline class="cls-5" points="319.41 248.31 360.94 248.31 360.94 226.73 387.92 226.73"/><polygon class="cls-6" points="386.61 231.22 394.38 226.73 386.61 222.24 386.61 231.22"/><polyline class="cls-5" points="319.41 156.26 360.94 156.26 360.94 177.83 387.92 177.83"/><polygon class="cls-6" points="386.61 182.32 394.38 177.83 386.61 173.34 386.61 182.32"/><rect class="cls-7" x="224.77" y="4.52" width="94.64" height="43.15"/><text class="cls-8" transform="translate(248.7 23.11)">Intrinsic<tspan x="-4.66" y="14.4">likelihood</tspan></text><rect class="cls-7" x="224.77" y="74.99" width="94.64" height="43.15"/><text class="cls-10" transform="translate(249.47 88.16)">Resulting<tspan x="-0.55" y="11.89">likelihood</tspan><tspan x="0" y="23.79">reduction</tspan></text><rect class="cls-7" x="224.77" y="145.47" width="94.64" height="43.15"/><text class="cls-8" transform="translate(248.7 164.06)">Intrinsic<tspan x="4" y="14.4">impact</tspan></text><rect class="cls-7" x="224.04" y="215.94" width="94.64" height="43.15"/><text class="cls-10" transform="translate(248.74 229.11)">Resulting<tspan x="6.6" y="11.89">impact</tspan><tspan x="0" y="23.79">reduction</tspan></text><rect class="cls-7" x="398.15" y="22.34" width="84.67" height="77.98"/><text class="cls-8" transform="translate(409.77 58.43)">RESIDUA<tspan class="cls-11" x="54.01" y="0">L</tspan><tspan x="-6.44" y="14.4">LIKELIHOOD</tspan></text><rect class="cls-7" x="398.15" y="163.29" width="84.67" height="77.98"/><text class="cls-8" transform="translate(409.57 199.38)">RESIDUA<tspan class="cls-11" x="54.01" y="0">L</tspan><tspan x="8.01" y="14.4">IM</tspan><tspan class="cls-12" x="21.34" y="14.4">P</tspan><tspan x="28.45" y="14.4">ACT</tspan></text><rect class="cls-7" x="473.12" y="112.07" width="112.18" height="40.42"/><text class="cls-8" transform="translate(514.97 129.38)">RISK<tspan x="-29.01" y="14.4">SERIOUSNESS</tspan></text></svg>