<?xml version="1.0" encoding="utf-8"?>
<!-- Generator: Adobe Illustrator 25.2.0, SVG Export Plug-In . SVG Version: 6.00 Build 0)  -->
<svg version="1.1" id="Livello_1" xmlns="http://www.w3.org/2000/svg" xmlns:xlink="http://www.w3.org/1999/xlink" x="0px" y="0px"
	 viewBox="0 0 595.3 841.9" style="enable-background:new 0 0 595.3 841.9;" xml:space="preserve">
<style type="text/css">
	.st0{display:none;}
	.st1{display:inline;fill:#FCC016;}
	.st2{fill:#FCC016;}
	.st3{fill:#0099CE;}
	.st4{fill:#0099CE;stroke:#FCC016;stroke-width:2;stroke-miterlimit:10;}
	.st5{fill:#FFFFFF;}
	.st6{font-family:'Arial-BoldMT';}
	.st7{font-size:12px;}
	.st8{font-size:8px;}
	.st9{fill:#FCC019;}
	.st10{fill:#36A9E1;}
	.st11{fill:none;stroke:#FCC019;stroke-width:2;stroke-miterlimit:10;}
</style>
<image style="display:none;overflow:visible;" width="471" height="358" xlink:href="D90F92E2.jpg"  transform="matrix(1 0 0 1 56.0025 50.9885)">
</image>
<g class="st0">
	<path class="st1" d="M286.3,201.2v57.7h26.1v-42l0.1,0.1v-25L286.3,201.2z M308.3,253.6h-18.1v-2.7h18.1V253.6z M308.3,247.2h-18.1
		v-2.7h18.1V247.2z M308.3,240.8h-18.1v-2.7h18.1V240.8z M308.3,234.4h-18.1v-2.7h18.1V234.4z M308.3,228h-18.1v-2.7h18.1V228z
		 M308.3,221.5h-18.1v-2.7h18.1V221.5z M308.3,215.1h-18.1v-2.7h18.1V215.1z M308.3,208.7h-18.1V206h18.1V208.7z"/>
	<path class="st1" d="M312.5,216.9v42h16.3v-32.8L312.5,216.9z M317.6,254.3h-3.9v-3.9h3.9V254.3z M317.6,247.6h-3.9v-3.9h3.9V247.6
		z M317.6,240.9h-3.9V237h3.9V240.9z M317.6,234.1h-3.9v-3.9h3.9V234.1z M324.8,254.3h-3.9v-3.9h3.9V254.3z M324.8,247.6h-3.9v-3.9
		h3.9V247.6z M324.8,240.9h-3.9V237h3.9V240.9z M324.8,234.1h-3.9v-3.9h3.9V234.1z"/>
</g>
<g>
	<g>
		<g>
			<polygon class="st2" points="301.6,202.1 280.6,209.5 280.6,255.8 301.6,255.8 			"/>
			<polygon class="st2" points="314.7,229.5 301.5,222.1 301.5,255.8 314.7,255.8 			"/>
		</g>
		<rect x="302.6" y="232.8" class="st3" width="3.1" height="3.1"/>
		<rect x="302.6" y="238.2" class="st3" width="3.1" height="3.1"/>
		<rect x="302.6" y="243.6" class="st3" width="3.1" height="3.1"/>
		<rect x="302.6" y="249" class="st3" width="3.1" height="3.1"/>
		<rect x="308.4" y="232.8" class="st3" width="3.1" height="3.1"/>
		<rect x="308.4" y="238.2" class="st3" width="3.1" height="3.1"/>
		<rect x="308.4" y="243.6" class="st3" width="3.1" height="3.1"/>
		<rect x="308.4" y="249" class="st3" width="3.1" height="3.1"/>
		<rect x="283.7" y="213.3" class="st3" width="14.5" height="2.2"/>
		<rect x="283.7" y="218.5" class="st3" width="14.5" height="2.2"/>
		<rect x="283.7" y="223.6" class="st3" width="14.5" height="2.2"/>
		<rect x="283.7" y="228.8" class="st3" width="14.5" height="2.2"/>
		<rect x="283.7" y="233.9" class="st3" width="14.5" height="2.2"/>
		<rect x="283.7" y="239.1" class="st3" width="14.5" height="2.2"/>
		<rect x="283.7" y="244.2" class="st3" width="14.5" height="2.2"/>
		<rect x="283.7" y="249.4" class="st3" width="14.5" height="2.2"/>
	</g>
	<path class="st4" d="M340.5,282.8h-85.7c-6.6,0-12-5.4-12-12v-3.1c0-6.6,5.4-12,12-12h85.7c6.6,0,12,5.4,12,12v3.1
		C352.5,277.4,347.1,282.8,340.5,282.8z"/>
	<text transform="matrix(1 0 0 1 251.9759 273.5479)" class="st5 st6 st7">ORGANIZATION</text>
</g>
<g>
	<g>
		<rect x="405.5" y="229.6" class="st2" width="45.1" height="25.1"/>
		<polygon class="st2" points="428,216.6 450.6,229.6 428,229.6 405.5,229.6 		"/>
		
			<rect x="397.3" y="217.4" transform="matrix(0.8661 -0.4999 0.4999 0.8661 -54.0899 236.5178)" class="st2" width="34.1" height="3.6"/>
		<rect x="440.3" y="202.2" transform="matrix(0.5 -0.866 0.866 0.5 31.1938 492.4483)" class="st2" width="3.6" height="34.1"/>
		<rect x="433.2" y="237.1" class="st3" width="10.1" height="17.5"/>
		<rect x="414.5" y="237.1" class="st3" width="11.2" height="8.9"/>
	</g>
	<path class="st4" d="M471.1,282.6h-85.7c-6.6,0-12-5.4-12-12v-3.1c0-6.6,5.4-12,12-12h85.7c6.6,0,12,5.4,12,12v3.1
		C483.1,277.2,477.7,282.6,471.1,282.6z"/>
	<text transform="matrix(1 0 0 1 406.817 273.2899)" class="st5 st6 st7">BUYER</text>
</g>
<g>
	<g>
		<rect x="148" y="203.8" class="st2" width="38.2" height="49.9"/>
		<rect x="148" y="198.8" class="st2" width="38.2" height="3.7"/>
		<rect x="152.1" y="213.7" class="st3" width="8.2" height="8.2"/>
		<rect x="163.1" y="213.7" class="st3" width="8.2" height="8.2"/>
		<rect x="174" y="213.7" class="st3" width="8.2" height="8.2"/>
		<rect x="152.1" y="224.7" class="st3" width="8.2" height="8.2"/>
		<rect x="163.1" y="224.7" class="st3" width="8.2" height="8.2"/>
		<rect x="174" y="224.7" class="st3" width="8.2" height="8.2"/>
		<rect x="152.1" y="235.6" class="st3" width="8.2" height="8.2"/>
		<rect x="163.1" y="235.6" class="st3" width="8.2" height="8.2"/>
		<rect x="174" y="235.6" class="st3" width="8.2" height="8.2"/>
	</g>
	<path class="st4" d="M209.9,281.3h-85.7c-6.6,0-12-5.4-12-12v-3.1c0-6.6,5.4-12,12-12h85.7c6.6,0,12,5.4,12,12v3.1
		C221.9,275.9,216.5,281.3,209.9,281.3z"/>
	<text transform="matrix(1 0 0 1 136.8637 272.0736)" class="st5 st6 st7">SUPPLIER</text>
</g>
<g>
	<g>
		<rect x="282.8" y="87.3" class="st2" width="29.7" height="58.4"/>
		<rect x="294.9" y="137.6" class="st3" width="5.5" height="8"/>
		<rect x="286" y="95.4" class="st3" width="23.3" height="2.7"/>
		<rect x="286" y="102.1" class="st3" width="23.3" height="2.7"/>
		<rect x="286" y="115.3" class="st3" width="23.3" height="2.7"/>
		<rect x="286" y="108.7" class="st3" width="23.3" height="2.7"/>
		<rect x="286" y="122" class="st3" width="23.3" height="2.7"/>
		<rect x="286" y="128.6" class="st3" width="23.3" height="2.7"/>
	</g>
	<path class="st4" d="M340.5,173.8h-85.7c-6.6,0-12-5.4-12-12v-3.1c0-6.6,5.4-12,12-12h85.7c6.6,0,12,5.4,12,12v3.1
		C352.5,168.4,347.1,173.8,340.5,173.8z"/>
	<text transform="matrix(1 0 0 1 269.2489 158.1606)"><tspan x="0" y="0" class="st5 st6 st8">TECHNOLOGY</tspan><tspan x="8.2" y="10" class="st5 st6 st8">SUPPLIER</tspan></text>
</g>
<g>
	<g>
		<g>
			<rect x="270.7" y="354.2" class="st2" width="53.9" height="3.5"/>
			<rect x="265.8" y="359.6" class="st2" width="63.6" height="3.5"/>
			<rect x="270.7" y="322.1" class="st2" width="53.9" height="3.5"/>
			<rect x="275.3" y="327.5" class="st2" width="7.1" height="24.7"/>
			<rect x="287.8" y="327.5" class="st2" width="7.1" height="24.7"/>
			<rect x="300.4" y="327.5" class="st2" width="7.1" height="24.7"/>
			<rect x="312.9" y="327.5" class="st2" width="7.1" height="24.7"/>
			<polygon class="st2" points="270.7,320.2 297.6,308.4 324.6,320.2 			"/>
		</g>
	</g>
	<path class="st4" d="M340.5,390.2h-85.7c-6.6,0-12-5.4-12-12v-3.1c0-6.6,5.4-12,12-12h85.7c6.6,0,12,5.4,12,12v3.1
		C352.5,384.8,347.1,390.2,340.5,390.2z"/>
	<text transform="matrix(1 0 0 1 269.2489 374.4749)"><tspan x="0" y="0" class="st5 st6 st8">TECHNOLOGY</tspan><tspan x="14.2" y="10" class="st5 st6 st8">BUYER</tspan></text>
</g>
<g>
	<g>
		<path class="st9" d="M360.8,84.8c-0.1-7.3-6-13.2-13.3-13.2c-1.2,0-2.4,0-3.6,0c-7.4,0-14.9,0-22.3,0c-10.6,0-21.2,0-31.8,0
			c-9.7,0-19.3,0-29,0c-4.4,0-8.7,0-13.1,0c-7,0.1-12.8,5.6-13.3,12.6c-0.1,1.2,0,2.5,0,3.7c0,7.1,0,14.1,0,21.2
			c0,10.5,0,20.9,0,31.4c0,10,0,20.1,0,30.1c0,5.6,0,11.3,0,16.9c0,0.3,0,0.5,0,0.8c0,0.7,0.6,1.2,1.2,1.2c4.1,0,8.2,0,12.3,0
			c9.9,0,19.7,0,29.6,0c11.9,0,23.8,0,35.8,0c10.3,0,20.6,0,30.9,0c5,0,10,0.2,15,0c0.1,0,0.1,0,0.2,0c0.7,0,1.2-0.6,1.2-1.2
			c0-3.4,0-6.8,0-10.3c0-8.3,0-16.5,0-24.8c0-9.9,0-19.9,0-29.8c0-8.6,0-17.3,0-25.9c0-4.2,0.2-8.4,0-12.5
			C360.8,84.9,360.8,84.9,360.8,84.8c0-1.6-2.5-1.6-2.5,0c0,3.4,0,6.8,0,10.3c0,8.3,0,16.5,0,24.8c0,9.9,0,19.9,0,29.8
			c0,8.6,0,17.3,0,25.9c0,2.8,0,5.7,0,8.5c0,1.3-0.2,2.8,0,4c0,0.1,0,0.1,0,0.2c0.4-0.4,0.8-0.8,1.2-1.2c-4.1,0-8.2,0-12.3,0
			c-9.9,0-19.7,0-29.6,0c-11.9,0-23.8,0-35.8,0c-10.3,0-20.6,0-30.9,0c-3.4,0-6.8,0-10.2,0c-1.5,0-3.3-0.2-4.8,0c-0.1,0-0.1,0-0.2,0
			c0.4,0.4,0.8,0.8,1.2,1.2c0-3.8,0-7.7,0-11.5c0-9.1,0-18.1,0-27.2c0-10.6,0-21.2,0-31.7c0-8.4,0-16.8,0-25.1c0-2.2,0-4.4,0-6.6
			c0-3.2,0.7-6.2,2.9-8.6c2.4-2.6,5.6-3.4,9-3.4c2.2,0,4.4,0,6.6,0c8.5,0,17,0,25.4,0c10.6,0,21.2,0,31.7,0c8.7,0,17.4,0,26.1,0
			c2.4,0,4.8,0,7.2,0c2.7,0,5.3,0.3,7.7,1.9c2.9,2,4.6,5.3,4.7,8.8C358.3,86.4,360.8,86.4,360.8,84.8z"/>
	</g>
</g>
<g>
	<g>
		<path class="st9" d="M234.5,394.7c0.1,7.3,6,13.2,13.3,13.2c1.2,0,2.4,0,3.6,0c7.4,0,14.8,0,22.3,0c10.6,0,21.2,0,31.8,0
			c9.6,0,19.2,0,28.8,0c4.4,0,8.9,0,13.3,0c6.7-0.1,12.5-5.2,13.2-11.9c0.2-1.4,0.1-2.9,0.1-4.3c0-7,0-14,0-20.9
			c0-10.4,0-20.9,0-31.3c0-10,0-20,0-30c0-5.6,0-11.3,0-16.9c0-0.3,0-0.5,0-0.8c0-0.7-0.6-1.2-1.2-1.2c-4.1,0-8.2,0-12.3,0
			c-9.9,0-19.7,0-29.6,0c-11.9,0-23.8,0-35.8,0c-10.3,0-20.6,0-30.9,0c-5,0-10-0.2-15,0c-0.1,0-0.1,0-0.2,0c-0.7,0-1.2,0.6-1.2,1.2
			c0,3.4,0,6.8,0,10.2c0,8.2,0,16.3,0,24.5c0,9.9,0,19.9,0,29.8c0,8.6,0,17.1,0,25.7c0,4.1-0.2,8.3,0,12.5
			C234.5,394.6,234.5,394.7,234.5,394.7c0,1.6,2.5,1.6,2.5,0c0-3.4,0-6.8,0-10.2c0-8.2,0-16.3,0-24.5c0-9.9,0-19.9,0-29.8
			c0-8.6,0-17.1,0-25.7c0-2.8,0-5.7,0-8.5c0-1.3,0.2-2.7,0-4c0-0.1,0-0.1,0-0.2c-0.4,0.4-0.8,0.8-1.2,1.2c4.1,0,8.2,0,12.3,0
			c9.9,0,19.7,0,29.6,0c11.9,0,23.8,0,35.8,0c10.3,0,20.6,0,30.9,0c3.4,0,6.8,0,10.2,0c1.5,0,3.3,0.2,4.8,0c0.1,0,0.1,0,0.2,0
			c-0.4-0.4-0.8-0.8-1.2-1.2c0,3.9,0,7.7,0,11.6c0,9,0,18.1,0,27.1c0,10.6,0,21.1,0,31.7c0,8.3,0,16.6,0,24.9c0,2.2,0,4.3,0,6.5
			c0,3.3-0.8,6.4-3.3,8.9c-2.4,2.4-5.5,3-8.7,3c-2.2,0-4.5,0-6.7,0c-8.5,0-17,0-25.5,0c-10.5,0-21.1,0-31.6,0c-8.7,0-17.4,0-26,0
			c-2.4,0-4.7,0-7.1,0c-2.7,0-5.3-0.3-7.7-1.9c-2.9-2-4.6-5.3-4.7-8.8C237,393.1,234.5,393.1,234.5,394.7z"/>
	</g>
</g>
<g>
	<g>
		<path class="st9" d="M110.4,187c-7.3,0.1-13.2,6-13.2,13.3c0,1.5,0,3,0,4.5c0,8.7,0,17.4,0,26.1c0,10.6,0,21.2,0,31.7
			c0,5.7,0,11.4,0,17.1c0.1,6.2,4.4,11.9,10.5,13.1c1.6,0.3,3.2,0.3,4.9,0.3c6,0,12,0,18,0c9.8,0,19.6,0,29.4,0
			c10.9,0,21.8,0,32.7,0c9.2,0,18.5,0,27.7,0c4.9,0,9.8,0,14.8,0c0.2,0,0.4,0,0.7,0c0.7,0,1.2-0.6,1.2-1.2c0-3.4,0-6.9,0-10.3
			c0-8.3,0-16.5,0-24.8c0-9.9,0-19.9,0-29.8c0-8.6,0-17.3,0-25.9c0-4.2,0.2-8.4,0-12.6c0-0.1,0-0.1,0-0.2c0-0.7-0.6-1.2-1.2-1.2
			c-4.2,0-8.3,0-12.5,0c-10,0-20,0-29.9,0c-12.1,0-24.2,0-36.2,0c-10.4,0-20.9,0-31.3,0c-5.1,0-10.2-0.2-15.2,0
			C110.5,187,110.4,187,110.4,187c-1.6,0-1.6,2.5,0,2.5c4.2,0,8.3,0,12.5,0c10,0,20,0,29.9,0c12.1,0,24.2,0,36.2,0
			c10.4,0,20.9,0,31.3,0c3.4,0,6.9,0,10.3,0c1.6,0,3.3,0.2,4.9,0c0.1,0,0.1,0,0.2,0c-0.4-0.4-0.8-0.8-1.2-1.2c0,3.4,0,6.9,0,10.3
			c0,8.3,0,16.5,0,24.8c0,9.9,0,19.9,0,29.8c0,8.6,0,17.3,0,25.9c0,2.8,0,5.7,0,8.5c0,1.3-0.2,2.8,0,4.1c0,0.1,0,0.1,0,0.2
			c0.4-0.4,0.8-0.8,1.2-1.2c-3.3,0-6.6,0-9.9,0c-8.2,0-16.5,0-24.7,0c-10.5,0-21,0-31.6,0c-10.2,0-20.5,0-30.7,0
			c-7.4,0-14.8,0-22.2,0c-1.8,0-3.6,0-5.4,0c-3.5,0-6.7-1.1-9-3.7c-2.2-2.5-2.6-5.6-2.6-8.7c0-2.8,0-5.6,0-8.4c0-9.7,0-19.4,0-29.1
			c0-9.8,0-19.6,0-29.4c0-2.9,0-5.9,0-8.8c0-2.9,0.2-5.5,1.8-8c2-3,5.4-4.7,8.9-4.8C112,189.5,112,187,110.4,187z"/>
	</g>
</g>
<g>
	<g>
		<path class="st9" d="M484.9,187c-4.2,0-8.3,0-12.5,0c-10,0-20,0-29.9,0c-12.1,0-24.2,0-36.2,0c-10.4,0-20.9,0-31.3,0
			c-5.1,0-10.2-0.2-15.2,0c-0.1,0-0.1,0-0.2,0c-0.7,0-1.2,0.6-1.2,1.2c0,3.4,0,6.9,0,10.3c0,8.3,0,16.5,0,24.8c0,9.9,0,19.9,0,29.8
			c0,8.6,0,17.3,0,25.9c0,4.2-0.2,8.4,0,12.6c0,0.1,0,0.1,0,0.2c0,0.7,0.6,1.2,1.2,1.2c3.4,0,6.9,0,10.3,0c8.5,0,16.9,0,25.4,0
			c10.8,0,21.5,0,32.3,0c10.3,0,20.7,0,31,0c7.2,0,14.3,0,21.5,0c1.5,0,3.1,0,4.6,0c4.8,0,9.3-2.4,11.8-6.6c1.6-2.7,1.8-5.6,1.8-8.7
			c0-3,0-6,0-9c0-10,0-20,0-30.1c0-9.7,0-19.5,0-29.2c0-2.7,0-5.4,0-8.1c0-3.9-1-7.6-3.8-10.5C491.9,188.5,488.5,187.1,484.9,187
			c-1.6,0-1.6,2.5,0,2.5c6,0.1,10.7,5,10.8,11c0,1.9,0,3.7,0,5.6c0,8.9,0,17.8,0,26.6c0,10.3,0,20.6,0,30.9c0,5.4,0.1,10.7,0,16.1
			c-0.1,5.9-4.8,10.8-10.8,10.8c-1,0-2.1,0-3.1,0c-6.3,0-12.6,0-18.9,0c-9.8,0-19.6,0-29.4,0c-10.7,0-21.4,0-32.1,0c-9,0-18,0-27,0
			c-4.8,0-9.5,0-14.3,0c-0.2,0-0.4,0-0.7,0c0.4,0.4,0.8,0.8,1.2,1.2c0-3.4,0-6.9,0-10.3c0-8.3,0-16.5,0-24.8c0-9.9,0-19.9,0-29.8
			c0-8.6,0-17.3,0-25.9c0-2.8,0-5.7,0-8.5c0-1.3,0.2-2.8,0-4.1c0-0.1,0-0.1,0-0.2c-0.4,0.4-0.8,0.8-1.2,1.2c4.2,0,8.3,0,12.5,0
			c10,0,20,0,29.9,0c12.1,0,24.2,0,36.2,0c10.4,0,20.9,0,31.3,0c5.1,0,10.2,0.2,15.2,0c0.1,0,0.1,0,0.2,0
			C486.5,189.5,486.5,187,484.9,187z"/>
	</g>
</g>
<text transform="matrix(4.489659e-11 -1 1 4.489659e-11 95.7609 278.2173)" class="st10 st6 st8">NOT TECHNOLOGY</text>
<text transform="matrix(1 0 0 1 269.2487 70.6229)" class="st10 st6 st8">TECHNOLOGY</text>
<path class="st11" d="M504.9,420.9H90.4c-6.6,0-12-5.4-12-12V67.3c0-6.6,5.4-12,12-12h414.5c6.6,0,12,5.4,12,12v341.6
	C516.9,415.5,511.5,420.9,504.9,420.9z"/>
<text transform="matrix(1 0 0 1 94.8789 52.9931)" class="st10 st6 st8">ECOSYSTEM</text>
<g>
	<polygon class="st10" points="250.2,240.1 231,229 231,251.1 	"/>
</g>
<g>
	<polygon class="st10" points="375.1,240.1 355.9,229 355.9,251.1 	"/>
</g>
<g>
	<polygon class="st10" points="297.6,201.7 308.7,182.5 286.6,182.5 	"/>
</g>
<g>
	<polygon class="st10" points="297.6,305.7 308.7,286.5 286.6,286.5 	"/>
</g>
</svg>
