<?xml version="1.0" encoding="utf-8"?>
<!-- Generator: Adobe Illustrator 25.2.0, SVG Export Plug-In . SVG Version: 6.00 Build 0)  -->
<svg version="1.1" id="Livello_1" xmlns="http://www.w3.org/2000/svg" xmlns:xlink="http://www.w3.org/1999/xlink" x="0px" y="0px"
	 viewBox="0 0 70.87 70.87" style="enable-background:new 0 0 70.87 70.87;" xml:space="preserve">
<style type="text/css">
	.st0{fill:#0099CE;}
	.st1{opacity:0.2;fill:#020203;}
	.st2{display:none;}
	.st3{display:inline;fill:#D2EBF0;}
	.st4{fill:#D2EBF0;}
	.st5{fill:#FCC013;}
	.st6{fill:#FEE69F;}
</style>
<g>
	<path class="st0" d="M6.11,49.99h58.65c0.89,0,1.62-0.73,1.62-1.62V6.26c0-0.89-0.73-1.62-1.62-1.62H6.11
		c-0.89,0-1.62,0.73-1.62,1.62v42.11C4.49,49.26,5.21,49.99,6.11,49.99z"/>
	<polygon class="st1" points="66.38,6.26 6.11,6.26 6.11,49.99 4.49,49.99 4.49,4.63 66.38,4.66 	"/>
	<g>
		<g class="st2">
			<path class="st3" d="M30.96,29.62c-0.59,0-1.11-0.42-1.22-1.02c-0.12-0.67,0.32-1.32,1-1.44c2.95-0.54,6.21-1.35,9.18-2.29
				c0.66-0.21,1.35,0.16,1.56,0.81c0.21,0.65-0.16,1.35-0.81,1.56c-3.12,0.98-6.39,1.8-9.48,2.36
				C31.11,29.61,31.04,29.62,30.96,29.62z"/>
			<path class="st3" d="M35.2,33.09c-0.09,0-0.19-0.01-0.28-0.03c-0.67-0.16-1.08-0.82-0.93-1.49c0.64-2.73,0.5-5.95-0.37-8.6
				c-0.21-0.65,0.14-1.35,0.79-1.57c0.65-0.22,1.35,0.14,1.57,0.79c1.01,3.07,1.17,6.79,0.43,9.94
				C36.28,32.7,35.77,33.09,35.2,33.09z"/>
		</g>
		<path class="st4" d="M35.78,35.79c-0.88,0-1.71-0.28-2.38-0.83c-1.2-0.98-1.78-2.64-1.55-4.45c0.87-6.81,0.49-13.33-1.12-19.36
			c-0.18-0.66,0.22-1.34,0.88-1.52c0.66-0.18,1.34,0.22,1.52,0.88c0.92,3.44,1.46,7.01,1.61,10.7c8.23-0.3,9.89,3.28,10.22,4.89
			c0.75,3.61-2.56,7.67-7.71,9.44C36.76,35.7,36.26,35.79,35.78,35.79z M34.79,23.69c-0.01,2.34-0.17,4.72-0.47,7.13
			c-0.12,0.94,0.13,1.78,0.65,2.21c0.38,0.31,0.88,0.36,1.48,0.16c4.3-1.48,6.51-4.57,6.09-6.59
			C42.12,24.61,39.19,23.53,34.79,23.69z"/>
		<g>
			<path class="st4" d="M15.57,35.36c-1.74,0-3.27-0.9-4.32-2.54c-1.46-2.28-1.63-5.55-0.43-8.12c1.36-2.91,3.49-3.35,4.65-3.35
				c2.66,0,5.41,2.22,6.4,5.17c0.93,2.77,0.04,5.52-2.38,7.35C18.18,34.86,16.86,35.36,15.57,35.36z M15.47,23.83
				c-1,0-1.8,0.64-2.39,1.92c-0.84,1.81-0.73,4.17,0.27,5.74c0.41,0.64,1.12,1.39,2.22,1.39c0.74,0,1.56-0.33,2.43-0.99
				c2.02-1.52,1.94-3.33,1.52-4.58C18.87,25.39,17.06,23.83,15.47,23.83z"/>
			<path class="st4" d="M25.39,33.21c-1.55,0-2.68-0.66-3.42-1.32c-2.43-2.16-3.26-6.61-2.66-9.67c0.13-0.67,0.78-1.11,1.46-0.98
				c0.67,0.13,1.11,0.79,0.98,1.46c-0.46,2.33,0.18,5.83,1.87,7.33c0.81,0.72,1.79,0.88,2.99,0.48c0.65-0.22,1.35,0.14,1.57,0.79
				c0.21,0.65-0.14,1.35-0.79,1.57C26.65,33.11,25.99,33.21,25.39,33.21z"/>
		</g>
		<g>
			<path class="st4" d="M58.16,35.64c-1.62,0.45-3.11,0.33-4.46-0.35c-1.42-0.71-2.37-1.91-2.83-3.6c-0.44-1.61-0.37-3.41,0.23-5.41
				c0.66-2.23,1.74-3.54,3.22-3.96c0.78-0.21,1.69-0.27,2.75-0.17c1.34,0.13,2.1,0.54,2.29,1.21c0.08,0.3,0.06,0.6-0.08,0.88
				c-0.13,0.29-0.35,0.47-0.64,0.55c-0.23,0.06-0.45,0.05-0.66-0.04s-0.41-0.18-0.61-0.27c-0.57-0.24-1.38-0.22-2.44,0.07
				c-0.81,0.22-1.41,1.16-1.8,2.82c-0.35,1.52-0.4,2.76-0.13,3.73c0.29,1.04,0.87,1.77,1.75,2.17c0.82,0.38,1.75,0.42,2.79,0.13
				c0.47-0.13,0.95-0.4,1.41-0.8l1.17-1.11c0.2-0.19,0.35-0.3,0.46-0.33c0.29-0.08,0.58-0.03,0.86,0.14
				c0.28,0.17,0.46,0.41,0.54,0.71c0.16,0.58-0.3,1.3-1.37,2.18C59.69,34.96,58.87,35.44,58.16,35.64z"/>
		</g>
	</g>
	<path class="st1" d="M54.57,48.1c0-0.89,0.72-1.62,1.62-1.62h5.59c0.89,0,1.62,0.72,1.62,1.62v1.43c0,0.9-0.73,1.62-1.62,1.62
		h-5.59c-0.9,0-1.62-0.72-1.62-1.62V48.1z"/>
	<path class="st5" d="M64.76,53.22H6.11c-2.68,0-4.86-2.18-4.86-4.86V6.26c0-2.68,2.18-4.86,4.86-4.86h58.65
		c2.68,0,4.86,2.18,4.86,4.86v42.11C69.62,51.05,67.44,53.22,64.76,53.22z M6.11,4.63c-0.89,0-1.62,0.73-1.62,1.62v42.11
		c0,0.89,0.73,1.62,1.62,1.62h58.65c0.89,0,1.62-0.73,1.62-1.62V6.26c0-0.89-0.73-1.62-1.62-1.62H6.11z"/>
	<path class="st6" d="M53.38,46.91c0-0.89,0.72-1.62,1.62-1.62h5.59c0.89,0,1.62,0.72,1.62,1.62v1.43c0,0.9-0.73,1.62-1.62,1.62H55
		c-0.9,0-1.62-0.72-1.62-1.62V46.91z"/>
</g>
</svg>
