<svg id="Livello_1" data-name="Livello 1" xmlns="http://www.w3.org/2000/svg" viewBox="0 0 388.65 388.65"><defs><style>.cls-1{fill:#0099ce;}.cls-2,.cls-3{fill:#009fe3;stroke:#fcc016;stroke-miterlimit:10;}.cls-2{stroke-width:8px;}.cls-3{stroke-width:27px;}.cls-4{font-size:14px;}.cls-4,.cls-6{fill:#fff;font-family:Arial-BoldMT, Arial;font-weight:700;}.cls-5{letter-spacing:-0.07em;}.cls-6{font-size:12px;}.cls-7{letter-spacing:-0.07em;}.cls-8{letter-spacing:0em;}</style></defs><path class="cls-1" d="M229.34,241V227.71H232v11h6.71V241Z" transform="translate(-103.31 -51.33)"/><path class="cls-1" d="M240.66,241V227.6h9.9v2.25h-7.2v3h6.7v2.25h-6.7v3.63h7.46V241Z" transform="translate(-103.31 -51.33)"/><path class="cls-1" d="M265.15,241h-2.94l-1.16-3h-5.34l-1.1,3h-2.86L257,227.6h2.85Zm-5-5.28-1.84-5-1.8,5Z" transform="translate(-103.31 -51.33)"/><path class="cls-1" d="M266.57,227.6h4.92a9.78,9.78,0,0,1,2.55.25,4.47,4.47,0,0,1,2,1.23,5.81,5.81,0,0,1,1.27,2.16,9.67,9.67,0,0,1,.44,3.16,8.83,8.83,0,0,1-.41,2.84,5.84,5.84,0,0,1-1.43,2.36,4.78,4.78,0,0,1-1.89,1.07,8.14,8.14,0,0,1-2.39.28h-5.07Zm2.69,2.25v8.85h2a7.06,7.06,0,0,0,1.63-.13A2.46,2.46,0,0,0,274,238a2.78,2.78,0,0,0,.71-1.29,8.87,8.87,0,0,0,.27-2.45,8.13,8.13,0,0,0-.27-2.38,3.11,3.11,0,0,0-.76-1.29,2.61,2.61,0,0,0-1.25-.63,12.76,12.76,0,0,0-2.22-.13Z" transform="translate(-103.31 -51.33)"/><path class="cls-1" d="M280.05,241V227.6H290v2.25h-7.21v3h6.71v2.25h-6.71v3.63h7.46V241Z" transform="translate(-103.31 -51.33)"/><path class="cls-1" d="M292.5,241V227.6h5.67a9.78,9.78,0,0,1,3.12.36,3.06,3.06,0,0,1,1.55,1.28,3.81,3.81,0,0,1,.58,2.1,3.55,3.55,0,0,1-.88,2.48,4.26,4.26,0,0,1-2.64,1.24,6.25,6.25,0,0,1,1.44,1.12,14.85,14.85,0,0,1,1.53,2.16L304.5,241h-3.22L299.33,238a18.57,18.57,0,0,0-1.42-2,2.05,2.05,0,0,0-.81-.55,4.49,4.49,0,0,0-1.36-.15h-.54V241Zm2.7-7.71h2a10.33,10.33,0,0,0,2.42-.16,1.46,1.46,0,0,0,.76-.57,1.73,1.73,0,0,0,.27-1,1.61,1.61,0,0,0-.36-1.09,1.67,1.67,0,0,0-1-.52c-.22,0-.88-.05-2-.05h-2.1Z" transform="translate(-103.31 -51.33)"/><path class="cls-1" d="M305.28,236.6l2.62-.25a3.22,3.22,0,0,0,1,1.94,3.58,3.58,0,0,0,3.92.07,1.65,1.65,0,0,0,.66-1.29,1.19,1.19,0,0,0-.28-.81,2.27,2.27,0,0,0-1-.58c-.31-.1-1-.3-2.16-.58a7.38,7.38,0,0,1-3-1.32,3.47,3.47,0,0,1-1.23-2.69,3.37,3.37,0,0,1,.58-1.9,3.6,3.6,0,0,1,1.67-1.36,6.64,6.64,0,0,1,2.62-.46,5.68,5.68,0,0,1,3.79,1.1,3.88,3.88,0,0,1,1.33,2.94l-2.69.12a2.34,2.34,0,0,0-.74-1.48,2.73,2.73,0,0,0-1.71-.45,3.07,3.07,0,0,0-1.84.48,1,1,0,0,0-.43.83,1,1,0,0,0,.4.81,7,7,0,0,0,2.48.9,12.69,12.69,0,0,1,2.91,1,3.69,3.69,0,0,1,1.47,1.35,4.18,4.18,0,0,1-.1,4.28,3.89,3.89,0,0,1-1.8,1.49,7.69,7.69,0,0,1-2.91.49A5.78,5.78,0,0,1,306.9,240,5.14,5.14,0,0,1,305.28,236.6Z" transform="translate(-103.31 -51.33)"/><path class="cls-1" d="M318.41,241V227.6h2.7v5.25h5.28V227.6h2.7V241h-2.7v-5.84h-5.28V241Z" transform="translate(-103.31 -51.33)"/><path class="cls-1" d="M331.79,241V227.6h2.7V241Z" transform="translate(-103.31 -51.33)"/><path class="cls-1" d="M337.06,241V227.6h4.33a15.16,15.16,0,0,1,3.2.2,3.45,3.45,0,0,1,1.92,1.3,4.13,4.13,0,0,1,.78,2.6,4.34,4.34,0,0,1-.45,2.07,3.67,3.67,0,0,1-1.13,1.32,3.87,3.87,0,0,1-1.4.63,15.21,15.21,0,0,1-2.8.19h-1.75v5Zm2.7-11.1v3.79h1.47a7.42,7.42,0,0,0,2.13-.2,1.74,1.74,0,0,0,1.15-1.7,1.68,1.68,0,0,0-.43-1.2A1.76,1.76,0,0,0,343,230a12.65,12.65,0,0,0-1.94-.1Z" transform="translate(-103.31 -51.33)"/><path class="cls-1" d="M366.16,239.32l-1.55,2a9.21,9.21,0,0,1-2.18-1.53,5.65,5.65,0,0,1-1.72,1.07,6.13,6.13,0,0,1-2.17.35,4.76,4.76,0,0,1-3.75-1.41,3.61,3.61,0,0,1-1-2.49,3.76,3.76,0,0,1,.77-2.31,6.26,6.26,0,0,1,2.28-1.78,7.42,7.42,0,0,1-1-1.55,3.22,3.22,0,0,1-.34-1.38,2.62,2.62,0,0,1,1-2.06,4.08,4.08,0,0,1,2.76-.84,3.88,3.88,0,0,1,2.71.88,2.8,2.8,0,0,1,1,2.16,2.77,2.77,0,0,1-.48,1.54,6.38,6.38,0,0,1-1.95,1.65l1.86,2.45a6.41,6.41,0,0,0,.56-1.52l2.32.53a14.18,14.18,0,0,1-.6,1.8,6.29,6.29,0,0,1-.55.95,10.24,10.24,0,0,0,1.11.88A9.12,9.12,0,0,0,366.16,239.32Zm-8-4.48a3.45,3.45,0,0,0-1.32,1.07,2.25,2.25,0,0,0-.44,1.29,1.81,1.81,0,0,0,.55,1.35,2,2,0,0,0,1.45.52,3.08,3.08,0,0,0,1.16-.23,5,5,0,0,0,1.21-.79Zm1-2.78.7-.53a1.58,1.58,0,0,0,.76-1.17,1.09,1.09,0,0,0-.37-.84,1.39,1.39,0,0,0-1-.35,1.37,1.37,0,0,0-1,.31.92.92,0,0,0-.35.7,1.94,1.94,0,0,0,.59,1.15Z" transform="translate(-103.31 -51.33)"/><path class="cls-1" d="M242.84,258.43l2.62.83a5.89,5.89,0,0,1-2,3.24,6.3,6.3,0,0,1-7.92-.75,6.92,6.92,0,0,1-1.72-5,7.3,7.3,0,0,1,1.73-5.18,5.88,5.88,0,0,1,4.52-1.85,5.57,5.57,0,0,1,4,1.45,5.21,5.21,0,0,1,1.37,2.46l-2.67.64a2.76,2.76,0,0,0-2.81-2.24,3,3,0,0,0-2.41,1.06,5.25,5.25,0,0,0-.93,3.46,5.61,5.61,0,0,0,.91,3.6,3,3,0,0,0,2.37,1.08,2.73,2.73,0,0,0,1.85-.68A4,4,0,0,0,242.84,258.43Z" transform="translate(-103.31 -51.33)"/><path class="cls-1" d="M247.22,256.74a8.58,8.58,0,0,1,.61-3.42,6.33,6.33,0,0,1,1.25-1.83,5.05,5.05,0,0,1,1.72-1.21,7.36,7.36,0,0,1,2.88-.53,6.23,6.23,0,0,1,4.72,1.84,8.16,8.16,0,0,1,0,10.15,6.21,6.21,0,0,1-4.7,1.82,6.28,6.28,0,0,1-4.74-1.81A6.91,6.91,0,0,1,247.22,256.74Zm2.78-.09a5,5,0,0,0,1.05,3.44,3.6,3.6,0,0,0,5.3,0,5.12,5.12,0,0,0,1-3.49,5,5,0,0,0-1-3.42,3.73,3.73,0,0,0-5.36,0A5,5,0,0,0,250,256.65Z" transform="translate(-103.31 -51.33)"/><path class="cls-1" d="M262.24,263.34V250h4l2.42,9.11,2.4-9.11h4v13.36h-2.5V252.82L270,263.34h-2.6l-2.64-10.52v10.52Z" transform="translate(-103.31 -51.33)"/><path class="cls-1" d="M277.78,263.34V250h4l2.42,9.11,2.4-9.11h4v13.36h-2.5V252.82l-2.65,10.52h-2.6l-2.64-10.52v10.52Z" transform="translate(-103.31 -51.33)"/><path class="cls-1" d="M293.28,263.34V250H296v13.36Z" transform="translate(-103.31 -51.33)"/><path class="cls-1" d="M301.55,263.34v-11.1h-4V250H308.2v2.26h-3.95v11.1Z" transform="translate(-103.31 -51.33)"/><path class="cls-1" d="M309.9,263.34V250h4l2.42,9.11,2.4-9.11h4v13.36h-2.51V252.82l-2.65,10.52h-2.59l-2.64-10.52v10.52Z" transform="translate(-103.31 -51.33)"/><path class="cls-1" d="M325.48,263.34V250h9.9v2.26h-7.21v3h6.71v2.25h-6.71v3.64h7.46v2.25Z" transform="translate(-103.31 -51.33)"/><path class="cls-1" d="M338,263.34V250h2.62L346,258.9V250h2.5v13.36h-2.7l-5.39-8.71v8.71Z" transform="translate(-103.31 -51.33)"/><path class="cls-1" d="M354.4,263.34v-11.1h-4V250h10.61v2.26h-4v11.1Z" transform="translate(-103.31 -51.33)"/><path class="cls-2" d="M119.51,312.55a190.22,190.22,0,0,0,245,111.23c98.38-36.94,148.18-146.64,111.23-245S329.12,30.58,230.75,67.53a190,190,0,0,0-111.24,245Zm261.66-98.26a89.31,89.31,0,1,1-114.9-52.16A89.22,89.22,0,0,1,381.17,214.29Z" transform="translate(-103.31 -51.33)"/><polyline class="cls-3" points="79.22 42.75 121.04 74.46 140.35 123.25"/><polyline class="cls-3" points="14.86 256.92 57.94 226.95 110.31 223.66"/><polyline class="cls-3" points="198.66 384.31 183.46 334.08 196.51 283.26"/><polyline class="cls-3" points="376.61 248.88 324.14 247.81 279.84 219.69"/><polyline class="cls-3" points="302.79 37.78 285.56 87.35 245.13 120.8"/><text class="cls-4" transform="translate(150.95 54.6)">INTEGR<tspan class="cls-5" x="52.89" y="0">A</tspan><tspan x="61.96" y="0">TION</tspan></text><text class="cls-6" transform="translate(15.76 163.03)">IMPROVEMENT</text><text class="cls-4" transform="translate(301.38 163.03)">DESIGN</text><text class="cls-4" transform="translate(215.73 304.08)">IMPLEMEN<tspan class="cls-7" x="73.89" y="0">TA</tspan><tspan class="cls-8" x="90.47" y="0">TION</tspan></text><text class="cls-4" transform="translate(65.32 306.84)">E<tspan class="cls-5" x="9.34" y="0">V</tspan><tspan x="17.64" y="0">ALU</tspan><tspan class="cls-5" x="46.41" y="0">A</tspan><tspan x="55.48" y="0">TION</tspan></text></svg>