<svg id="Livello_1" data-name="Livello 1" xmlns="http://www.w3.org/2000/svg" viewBox="0 0 583.05 357.78"><defs><style>.cls-1,.cls-25{fill:#0099cd;}.cls-1,.cls-8{stroke:#fcc016;}.cls-1,.cls-10,.cls-17,.cls-8{stroke-miterlimit:10;}.cls-1,.cls-17,.cls-8{stroke-width:2px;}.cls-2{font-size:8.93px;}.cls-12,.cls-19,.cls-2{fill:#fff;}.cls-12,.cls-13,.cls-16,.cls-19,.cls-2,.cls-25{font-family:Arial-BoldMT, Arial;font-weight:700;}.cls-3{letter-spacing:-0.02em;}.cls-4{letter-spacing:-0.04em;}.cls-5{letter-spacing:-0.02em;}.cls-6{letter-spacing:0em;}.cls-7{letter-spacing:-0.07em;}.cls-10,.cls-17,.cls-8{fill:none;}.cls-9{fill:#fcc016;}.cls-10,.cls-17{stroke:#0099ce;}.cls-10{stroke-width:8px;}.cls-11,.cls-13,.cls-16{fill:#0099ce;}.cls-12{font-size:19.17px;}.cls-13{font-size:7.28px;}.cls-14{letter-spacing:-0.07em;}.cls-15{letter-spacing:0em;}.cls-16{font-size:9.23px;}.cls-18{letter-spacing:-0.02em;}.cls-19{font-size:7.86px;}.cls-20{letter-spacing:-0.07em;}.cls-21{letter-spacing:-0.02em;}.cls-22{letter-spacing:-0.04em;}.cls-23{letter-spacing:-0.02em;}.cls-24{letter-spacing:-0.07em;}.cls-25{font-size:8.11px;}.cls-26{letter-spacing:-0.07em;}.cls-27{letter-spacing:-0.04em;}.cls-28{letter-spacing:-0.02em;}</style></defs><polygon class="cls-1" points="460 356.78 65.36 356.78 102.65 323.62 497.29 323.62 460 356.78"/><text class="cls-2" transform="translate(90.09 354.33)">. . . . . .</text><polygon class="cls-1" points="460 342.71 65.36 342.71 102.65 309.54 497.29 309.54 460 342.71"/><text class="cls-2" transform="translate(90.09 340.25)">SCALE</text><polygon class="cls-1" points="460 328.63 65.36 328.63 102.65 295.46 497.29 295.46 460 328.63"/><text class="cls-2" transform="translate(90.09 326.18)">POLIC<tspan class="cls-3" x="27.29" y="0">Y</tspan><tspan class="cls-4" x="33.08" y="0"> </tspan><tspan x="35.23" y="0">AND INTERNA</tspan><tspan class="cls-5" x="96.74" y="0">L</tspan><tspan class="cls-6" x="102.04" y="0" xml:space="preserve"> REGUL</tspan><tspan class="cls-7" x="135.77" y="0">A</tspan><tspan x="141.55" y="0">TIONS</tspan></text><polygon class="cls-1" points="460 314.55 65.36 314.55 102.65 281.38 497.29 281.38 460 314.55"/><text class="cls-2" transform="translate(90.09 312.1)">SEC<tspan class="cls-3" x="18.36" y="0">T</tspan><tspan x="23.65" y="0">OR REGUL</tspan><tspan class="cls-7" x="70.78" y="0">A</tspan><tspan x="76.57" y="0">TIONS</tspan></text><polygon class="cls-1" points="460 300.47 65.36 300.47 102.65 267.3 497.29 267.3 460 300.47"/><text class="cls-2" transform="translate(90.09 298.02)">CONTEXT OF INTEREST</text><line class="cls-8" x1="136.82" y1="279.3" x2="136.82" y2="250.35"/><polygon class="cls-9" points="140.31 251.37 136.82 245.32 133.33 251.37 140.31 251.37"/><line class="cls-8" x1="241.03" y1="279.3" x2="241.03" y2="250.35"/><polygon class="cls-9" points="244.52 251.37 241.03 245.32 237.54 251.37 244.52 251.37"/><line class="cls-8" x1="344.34" y1="279.3" x2="344.34" y2="250.35"/><polygon class="cls-9" points="347.83 251.37 344.34 245.32 340.85 251.37 347.83 251.37"/><line class="cls-8" x1="448.34" y1="279.3" x2="448.34" y2="250.35"/><polygon class="cls-9" points="451.83 251.37 448.34 245.32 444.85 251.37 451.83 251.37"/><line class="cls-10" x1="53.04" y1="224.26" x2="476.77" y2="224.26"/><polygon class="cls-11" points="473.26 236.23 493.99 224.26 473.26 212.29 473.26 236.23"/><circle class="cls-1" cx="448.34" cy="224.26" r="15.37"/><text class="cls-12" transform="translate(443.04 231.15)">4</text><circle class="cls-1" cx="344.34" cy="224.26" r="15.37"/><text class="cls-12" transform="translate(339.05 231.04)">3</text><circle class="cls-1" cx="241.03" cy="224.26" r="15.37"/><text class="cls-12" transform="translate(235.94 231.16)">2</text><circle class="cls-1" cx="136.82" cy="224.26" r="15.37"/><text class="cls-12" transform="translate(132.3 231.16)">1</text><polygon class="cls-8" points="563.08 189.65 497.29 189.65 497.29 258.87 582.05 258.87 582.05 208.62 563.08 189.65"/><path class="cls-9" d="M572.85,198.55l19,19H576.9a4.05,4.05,0,0,1-4-4Z" transform="translate(-9.78 -8.9)"/><text class="cls-13" transform="translate(500.63 226.87)">CONTEXTUALIZ<tspan class="cls-14" x="56.21" y="0">A</tspan><tspan class="cls-15" x="60.93" y="0">TION</tspan></text><polygon class="cls-8" points="33.81 189.65 3.02 189.65 3.02 258.87 52.79 258.87 52.79 208.62 33.81 189.65"/><path class="cls-9" d="M43.59,198.55l19,19H47.64a4,4,0,0,1-4-4Z" transform="translate(-9.78 -8.9)"/><text class="cls-16" transform="translate(13.67 255.6) rotate(-90)">FRAMEWORK</text><line class="cls-17" x1="344.34" y1="169.14" x2="344.34" y2="198.1"/><polygon class="cls-11" points="340.85 197.08 344.33 203.12 347.83 197.08 340.85 197.08"/><line class="cls-17" x1="241.03" y1="169.14" x2="241.03" y2="198.1"/><polygon class="cls-11" points="237.54 197.08 241.03 203.12 244.52 197.08 237.54 197.08"/><line class="cls-17" x1="136.82" y1="169.68" x2="136.82" y2="198.64"/><polygon class="cls-11" points="133.33 197.62 136.82 203.66 140.31 197.62 133.33 197.62"/><line class="cls-17" x1="25.88" y1="70.22" x2="25.88" y2="160.65"/><line class="cls-17" x1="25.88" y1="159.62" x2="75.17" y2="159.62"/><polygon class="cls-11" points="74.14 163.11 80.19 159.62 74.14 156.13 74.14 163.11"/><line class="cls-17" x1="25.88" y1="79.62" x2="75.17" y2="79.62"/><polygon class="cls-11" points="74.14 83.11 80.19 79.62 74.14 76.13 74.14 83.11"/><line class="cls-17" x1="25.88" y1="119.62" x2="75.17" y2="119.62"/><polygon class="cls-11" points="74.14 123.11 80.19 119.62 74.14 116.13 74.14 123.11"/><polygon class="cls-8" points="31.79 1 1 1 1 70.22 50.77 70.22 50.77 19.98 31.79 1"/><path class="cls-9" d="M41.57,9.9l19,19H45.62a4,4,0,0,1-4-4.05Z" transform="translate(-9.78 -8.9)"/><text class="cls-16" transform="translate(11.65 67.17) rotate(-90)">PRO<tspan class="cls-18" x="20" y="0">T</tspan><tspan x="25.47" y="0">OTYPES</tspan></text><polygon class="cls-1" points="174.82 177.21 72.89 177.21 98.81 142.02 200.75 142.02 174.82 177.21"/><polygon class="cls-1" points="279.03 177.21 177.1 177.21 203.02 142.02 304.96 142.02 279.03 177.21"/><polygon class="cls-1" points="382.34 177.21 280.41 177.21 306.33 142.02 408.26 142.02 382.34 177.21"/><line class="cls-8" x1="344.33" y1="159.62" x2="344.34" y2="107.38"/><line class="cls-8" x1="241.03" y1="159.62" x2="241.03" y2="107.38"/><line class="cls-8" x1="136.82" y1="159.62" x2="136.82" y2="107.38"/><polygon class="cls-1" points="174.82 137.21 72.89 137.21 98.81 102.02 200.75 102.02 174.82 137.21"/><polygon class="cls-1" points="279.03 137.21 177.1 137.21 203.02 102.02 304.96 102.02 279.03 137.21"/><polygon class="cls-1" points="382.34 137.21 280.41 137.21 306.33 102.02 408.26 102.02 382.34 137.21"/><line class="cls-8" x1="344.33" y1="119.62" x2="344.34" y2="67.38"/><line class="cls-8" x1="241.03" y1="119.62" x2="241.03" y2="67.38"/><line class="cls-8" x1="136.82" y1="119.62" x2="136.82" y2="67.38"/><polygon class="cls-1" points="174.82 97.21 72.89 97.21 98.81 62.02 200.75 62.02 174.82 97.21"/><text class="cls-19" transform="translate(108 73)">MAND<tspan class="cls-20" x="23.57" y="0">A</tspan><tspan class="cls-21" x="28.66" y="0">T</tspan><tspan x="33.32" y="0">O</tspan><tspan class="cls-22" x="39.43" y="0">R</tspan><tspan class="cls-23" x="44.81" y="0">Y</tspan><tspan x="49.91" y="0" xml:space="preserve"> &amp;</tspan><tspan x="-2.76" y="9.43">RECOMMENDED</tspan><tspan x="-5.09" y="18.86">SUBC</tspan><tspan class="cls-24" x="17.17" y="18.86">A</tspan><tspan x="22.26" y="18.86">TEGORIES</tspan></text><polygon class="cls-1" points="279.03 97.21 177.1 97.21 203.02 62.02 304.96 62.02 279.03 97.21"/><text class="cls-19" transform="translate(222.18 77.71)">PRIORIT<tspan class="cls-23" x="31.87" y="0">Y</tspan><tspan x="3.2" y="9.43">LEVELS</tspan></text><polygon class="cls-1" points="382.34 97.21 280.41 97.21 306.33 62.02 408.26 62.02 382.34 97.21"/><text class="cls-19" transform="translate(304.66 73)">APPLIC<tspan class="cls-24" x="28.81" y="0">A</tspan><tspan x="33.9" y="0">TION GUIDE</tspan><tspan x="8.11" y="9.43">CONSTRAINTS +</tspan><tspan x="17.83" y="18.86">CONTROLS</tspan></text><line class="cls-17" x1="344.34" y1="186.67" x2="246.98" y2="186.67"/><path class="cls-17" d="M235.43,291.3" transform="translate(-9.78 -8.9)"/><path class="cls-17" d="M208.48,291.57" transform="translate(-9.78 -8.9)"/><path class="cls-17" d="M280.75,291.3" transform="translate(-9.78 -8.9)"/><path class="cls-17" d="M255.42,291.57" transform="translate(-9.78 -8.9)"/><path class="cls-17" d="M235.43,291.3" transform="translate(-9.78 -8.9)"/><line class="cls-17" x1="235.12" y1="186.75" x2="142.78" y2="186.75"/><polygon class="cls-11" points="143.8 183.26 137.76 186.75 143.8 190.24 143.8 183.26"/><path class="cls-17" d="M244.12,196c7-8.43,13.35-.16,13.46,0" transform="translate(-9.78 -8.9)"/><text class="cls-25" transform="translate(69.76 253.13)">SUBC<tspan class="cls-26" x="22.98" y="0">A</tspan><tspan x="28.24" y="0">TEGO</tspan><tspan class="cls-27" x="51.22" y="0">R</tspan><tspan class="cls-28" x="56.77" y="0">Y</tspan><tspan x="0" y="9.73">SELECTION</tspan></text><text class="cls-25" transform="translate(186.44 243.4)">PRIORIT<tspan class="cls-28" x="32.89" y="0">Y</tspan><tspan x="0" y="9.73">LEVELS</tspan><tspan x="0" y="19.47">DEFINITION</tspan></text><text class="cls-25" transform="translate(284.16 251.53)">GUIDELINES<tspan x="0" y="9.73">(CONTROLS)</tspan></text><text class="cls-25" transform="translate(401.8 253.13)">M<tspan class="cls-26" x="6.76" y="0">A</tspan><tspan x="12.01" y="0">TURIT</tspan><tspan class="cls-28" x="35.89" y="0">Y</tspan><tspan x="0" y="9.73">LEVELS</tspan></text></svg>