<svg id="Livello_1" data-name="Livello 1" xmlns="http://www.w3.org/2000/svg" viewBox="0 0 279.8 148.5"><defs><style>.cls-1{fill:#0099cd;}.cls-2{fill:#fcc013;}.cls-13,.cls-3,.cls-5{isolation:isolate;}.cls-3,.cls-6{font-size:8px;}.cls-13,.cls-3,.cls-6,.cls-9{fill:#fff;}.cls-13,.cls-3,.cls-6{font-family:Arial-BoldMT, Arial;font-weight:700;}.cls-4{fill:#ff595e;}.cls-7{letter-spacing:-0.02em;}.cls-8{fill:#ff5400;}.cls-10{fill:#0ead69;}.cls-11{fill:#1d4e89;}.cls-12{fill:#6a4c93;}.cls-13{font-size:4.82px;}.cls-14{fill:none;stroke:#000;stroke-miterlimit:10;}</style></defs><rect class="cls-1" x="0.5" y="0.5" width="11.9" height="147.5"/><path class="cls-2" d="M31.8,12.6V159.1h-11V12.6h11m1-1h-13V160.1H32.7V11.6Z" transform="translate(-19.8 -11.6)"/><text class="cls-3" transform="translate(9.36 125.68) rotate(-90)">FRAMEWORK FUNCTIONS</text><rect class="cls-4" x="13.2" y="0.5" width="49.7" height="28.7"/><path class="cls-2" d="M82.2,12.6V40.3H33.5V12.6H82.2m1-1H32.5V41.3H83.2V11.6Z" transform="translate(-19.8 -11.6)"/><g class="cls-5"><text class="cls-6" transform="translate(19.82 12.91)">IDENTIF<tspan class="cls-7" x="31.11" y="0">Y</tspan><tspan x="14.15" y="9.6">ID</tspan></text><text class="cls-6" transform="translate(19.82 12.91)">IDENTIF<tspan class="cls-7" x="31.11" y="0">Y</tspan><tspan x="14.15" y="9.6">ID</tspan></text></g><rect class="cls-8" x="13.2" y="30.1" width="49.7" height="28.7"/><path class="cls-2" d="M82.2,42.2V69.9H33.5V42.2H82.2m1-1H32.5V70.9H83.2V41.2Z" transform="translate(-19.8 -11.6)"/><g class="cls-5"><path class="cls-9" d="M39.11,54.17V48.44H41a6.37,6.37,0,0,1,1.37.09,1.46,1.46,0,0,1,.83.56,1.75,1.75,0,0,1,.33,1.11,2,2,0,0,1-.19.89,1.5,1.5,0,0,1-.49.56,1.6,1.6,0,0,1-.6.27A6,6,0,0,1,41,52h-.75v2.16Zm1.16-4.76V51h.63a2.92,2.92,0,0,0,.91-.09.75.75,0,0,0,.37-.28.81.81,0,0,0,.13-.44.73.73,0,0,0-.19-.52.78.78,0,0,0-.46-.25,5.05,5.05,0,0,0-.83,0Z" transform="translate(-19.8 -11.6)"/><path class="cls-9" d="M44.45,54.17V48.44h2.44a4.27,4.27,0,0,1,1.33.15,1.38,1.38,0,0,1,.67.55,1.74,1.74,0,0,1,.25.9,1.56,1.56,0,0,1-.38,1.07,1.83,1.83,0,0,1-1.14.53,2.37,2.37,0,0,1,.62.48,5.79,5.79,0,0,1,.66.93l.7,1.12H48.22l-.84-1.25a7.2,7.2,0,0,0-.61-.84.79.79,0,0,0-.35-.24,2,2,0,0,0-.58-.06h-.23v2.39Zm1.16-3.31h.85a4.24,4.24,0,0,0,1-.07.68.68,0,0,0,.33-.24.83.83,0,0,0,.11-.43.72.72,0,0,0-.15-.47.69.69,0,0,0-.44-.22,7.18,7.18,0,0,0-.84,0h-.9Z" transform="translate(-19.8 -11.6)"/><path class="cls-9" d="M50,51.34a3.69,3.69,0,0,1,.26-1.47,2.78,2.78,0,0,1,.54-.79,2.14,2.14,0,0,1,.74-.51,3.1,3.1,0,0,1,1.23-.23,2.69,2.69,0,0,1,2,.79,3.49,3.49,0,0,1,0,4.35,2.66,2.66,0,0,1-2,.78,2.71,2.71,0,0,1-2-.78A3,3,0,0,1,50,51.34Zm1.19,0a2.12,2.12,0,0,0,.45,1.47,1.45,1.45,0,0,0,1.14.51,1.48,1.48,0,0,0,1.14-.5,2.22,2.22,0,0,0,.44-1.5,2.17,2.17,0,0,0-.43-1.47,1.61,1.61,0,0,0-2.3,0A2.18,2.18,0,0,0,51.18,51.3Z" transform="translate(-19.8 -11.6)"/><path class="cls-9" d="M57.74,54.17V49.41H56v-1h4.55v1h-1.7v4.76Z" transform="translate(-19.8 -11.6)"/><path class="cls-9" d="M61.33,54.17V48.44h4.25v1H62.49v1.27h2.88v1H62.49V53.2h3.2v1Z" transform="translate(-19.8 -11.6)"/><path class="cls-9" d="M70.33,52.06l1.13.36a2.6,2.6,0,0,1-.86,1.39,2.71,2.71,0,0,1-3.4-.33,3,3,0,0,1-.73-2.13,3.1,3.1,0,0,1,.74-2.22,2.54,2.54,0,0,1,1.94-.79,2.37,2.37,0,0,1,1.7.62A2.3,2.3,0,0,1,71.44,50l-1.14.27a1.18,1.18,0,0,0-.43-.7,1.2,1.2,0,0,0-.78-.26,1.27,1.27,0,0,0-1,.46,2.18,2.18,0,0,0-.4,1.48,2.38,2.38,0,0,0,.39,1.54,1.27,1.27,0,0,0,1,.47,1.15,1.15,0,0,0,.8-.3A1.64,1.64,0,0,0,70.33,52.06Z" transform="translate(-19.8 -11.6)"/><path class="cls-9" d="M73.74,54.17V49.41H72v-1h4.55v1h-1.7v4.76Z" transform="translate(-19.8 -11.6)"/><path class="cls-9" d="M52.67,63.77V58h1.85a7.59,7.59,0,0,1,1.38.08,1.51,1.51,0,0,1,.82.57,1.75,1.75,0,0,1,.33,1.11,1.86,1.86,0,0,1-.19.89,1.57,1.57,0,0,1-.48.56,1.6,1.6,0,0,1-.6.27,6.09,6.09,0,0,1-1.2.09h-.76v2.16ZM53.82,59v1.62h.64a3,3,0,0,0,.91-.09.77.77,0,0,0,.36-.28.74.74,0,0,0,.13-.44.77.77,0,0,0-.18-.52.75.75,0,0,0-.47-.25,4.89,4.89,0,0,0-.83,0Z" transform="translate(-19.8 -11.6)"/><path class="cls-9" d="M58,63.77V58h2.43a4.23,4.23,0,0,1,1.33.15,1.38,1.38,0,0,1,.67.55,1.63,1.63,0,0,1,.25.9,1.56,1.56,0,0,1-.38,1.07,1.85,1.85,0,0,1-1.13.53,2.55,2.55,0,0,1,.62.48,6.51,6.51,0,0,1,.66.93l.69,1.12H61.77l-.83-1.25a7.2,7.2,0,0,0-.61-.84.85.85,0,0,0-.35-.24,2,2,0,0,0-.58-.07h-.24v2.4Zm1.15-3.31H60a4.3,4.3,0,0,0,1-.07.65.65,0,0,0,.32-.24.75.75,0,0,0,.12-.43.67.67,0,0,0-.16-.47.66.66,0,0,0-.43-.22,7.51,7.51,0,0,0-.85,0h-.9Z" transform="translate(-19.8 -11.6)"/><path class="cls-9" d="M39.11,54.17V48.44H41a6.37,6.37,0,0,1,1.37.09,1.46,1.46,0,0,1,.83.56,1.75,1.75,0,0,1,.33,1.11,2,2,0,0,1-.19.89,1.5,1.5,0,0,1-.49.56,1.6,1.6,0,0,1-.6.27A6,6,0,0,1,41,52h-.75v2.16Zm1.16-4.76V51h.63a2.92,2.92,0,0,0,.91-.09.75.75,0,0,0,.37-.28.81.81,0,0,0,.13-.44.73.73,0,0,0-.19-.52.78.78,0,0,0-.46-.25,5.05,5.05,0,0,0-.83,0Z" transform="translate(-19.8 -11.6)"/><path class="cls-9" d="M44.45,54.17V48.44h2.44a4.27,4.27,0,0,1,1.33.15,1.38,1.38,0,0,1,.67.55,1.74,1.74,0,0,1,.25.9,1.56,1.56,0,0,1-.38,1.07,1.83,1.83,0,0,1-1.14.53,2.37,2.37,0,0,1,.62.48,5.79,5.79,0,0,1,.66.93l.7,1.12H48.22l-.84-1.25a7.2,7.2,0,0,0-.61-.84.79.79,0,0,0-.35-.24,2,2,0,0,0-.58-.06h-.23v2.39Zm1.16-3.31h.85a4.24,4.24,0,0,0,1-.07.68.68,0,0,0,.33-.24.83.83,0,0,0,.11-.43.72.72,0,0,0-.15-.47.69.69,0,0,0-.44-.22,7.18,7.18,0,0,0-.84,0h-.9Z" transform="translate(-19.8 -11.6)"/><path class="cls-9" d="M50,51.34a3.69,3.69,0,0,1,.26-1.47,2.78,2.78,0,0,1,.54-.79,2.14,2.14,0,0,1,.74-.51,3.1,3.1,0,0,1,1.23-.23,2.69,2.69,0,0,1,2,.79,3.49,3.49,0,0,1,0,4.35,2.66,2.66,0,0,1-2,.78,2.71,2.71,0,0,1-2-.78A3,3,0,0,1,50,51.34Zm1.19,0a2.12,2.12,0,0,0,.45,1.47,1.45,1.45,0,0,0,1.14.51,1.48,1.48,0,0,0,1.14-.5,2.22,2.22,0,0,0,.44-1.5,2.17,2.17,0,0,0-.43-1.47,1.61,1.61,0,0,0-2.3,0A2.18,2.18,0,0,0,51.18,51.3Z" transform="translate(-19.8 -11.6)"/><path class="cls-9" d="M57.74,54.17V49.41H56v-1h4.55v1h-1.7v4.76Z" transform="translate(-19.8 -11.6)"/><path class="cls-9" d="M61.33,54.17V48.44h4.25v1H62.49v1.27h2.88v1H62.49V53.2h3.2v1Z" transform="translate(-19.8 -11.6)"/><path class="cls-9" d="M70.33,52.06l1.13.36a2.6,2.6,0,0,1-.86,1.39,2.71,2.71,0,0,1-3.4-.33,3,3,0,0,1-.73-2.13,3.1,3.1,0,0,1,.74-2.22,2.54,2.54,0,0,1,1.94-.79,2.37,2.37,0,0,1,1.7.62A2.3,2.3,0,0,1,71.44,50l-1.14.27a1.18,1.18,0,0,0-.43-.7,1.2,1.2,0,0,0-.78-.26,1.27,1.27,0,0,0-1,.46,2.18,2.18,0,0,0-.4,1.48,2.38,2.38,0,0,0,.39,1.54,1.27,1.27,0,0,0,1,.47,1.15,1.15,0,0,0,.8-.3A1.64,1.64,0,0,0,70.33,52.06Z" transform="translate(-19.8 -11.6)"/><path class="cls-9" d="M73.74,54.17V49.41H72v-1h4.55v1h-1.7v4.76Z" transform="translate(-19.8 -11.6)"/><path class="cls-9" d="M52.67,63.77V58h1.85a7.59,7.59,0,0,1,1.38.08,1.51,1.51,0,0,1,.82.57,1.75,1.75,0,0,1,.33,1.11,1.86,1.86,0,0,1-.19.89,1.57,1.57,0,0,1-.48.56,1.6,1.6,0,0,1-.6.27,6.09,6.09,0,0,1-1.2.09h-.76v2.16ZM53.82,59v1.62h.64a3,3,0,0,0,.91-.09.77.77,0,0,0,.36-.28.74.74,0,0,0,.13-.44.77.77,0,0,0-.18-.52.75.75,0,0,0-.47-.25,4.89,4.89,0,0,0-.83,0Z" transform="translate(-19.8 -11.6)"/><path class="cls-9" d="M58,63.77V58h2.43a4.23,4.23,0,0,1,1.33.15,1.38,1.38,0,0,1,.67.55,1.63,1.63,0,0,1,.25.9,1.56,1.56,0,0,1-.38,1.07,1.85,1.85,0,0,1-1.13.53,2.55,2.55,0,0,1,.62.48,6.51,6.51,0,0,1,.66.93l.69,1.12H61.77l-.83-1.25a7.2,7.2,0,0,0-.61-.84.85.85,0,0,0-.35-.24,2,2,0,0,0-.58-.07h-.24v2.4Zm1.15-3.31H60a4.3,4.3,0,0,0,1-.07.65.65,0,0,0,.32-.24.75.75,0,0,0,.12-.43.67.67,0,0,0-.16-.47.66.66,0,0,0-.43-.22,7.51,7.51,0,0,0-.85,0h-.9Z" transform="translate(-19.8 -11.6)"/></g><rect class="cls-10" x="13.2" y="59.9" width="49.7" height="28.7"/><path class="cls-2" d="M82.2,72V99.7H33.5V72H82.2m1-1H32.5v29.7H83.2V71Z" transform="translate(-19.8 -11.6)"/><g class="cls-5"><text class="cls-3" transform="translate(22.05 71.38)">DETECT<tspan x="10.44" y="9.6">DE</tspan></text><text class="cls-6" transform="translate(22.05 71.38)">DETECT<tspan x="10.44" y="9.6">DE</tspan></text></g><rect class="cls-11" x="13.2" y="89.6" width="49.7" height="28.7"/><path class="cls-2" d="M82.2,101.7v27.7H33.5V101.7H82.2m1-1H32.5v29.7H83.2V100.7Z" transform="translate(-19.8 -11.6)"/><g class="cls-5"><text class="cls-3" transform="translate(18.27 101.08)">RESPOND<tspan x="14.22" y="9.6">RS</tspan></text><text class="cls-6" transform="translate(18.27 101.08)">RESPOND<tspan x="14.22" y="9.6">RS</tspan></text></g><rect class="cls-12" x="13.2" y="119.3" width="49.7" height="28.7"/><path class="cls-2" d="M82.2,131.4v27.7H33.5V131.4H82.2m1-1H32.5v29.7H83.2V130.4Z" transform="translate(-19.8 -11.6)"/><g class="cls-5"><text class="cls-3" transform="translate(18.27 130.78)">RECOVER<tspan x="14" y="9.6">RC</tspan></text><text class="cls-6" transform="translate(18.27 130.78)">RECOVER<tspan x="14" y="9.6">RC</tspan></text></g><path class="cls-2" d="M154.2,12.6V40.3H84.1V12.6h70.1m1-1H83.1V41.3h72.2V11.6Z" transform="translate(-19.8 -11.6)"/><rect class="cls-4" x="65.9" y="2.8" width="66.9" height="6.6"/><text class="cls-13" transform="translate(86.89 7.35)">Categories</text><line class="cls-14" x1="65.9" y1="14.8" x2="132.8" y2="14.8"/><line class="cls-14" x1="65.9" y1="21.8" x2="132.8" y2="21.8"/><path class="cls-2" d="M226.4,12.6V40.3H156.2V12.6h70.2m1-1H155.2V41.3h72.2V11.6Z" transform="translate(-19.8 -11.6)"/><rect class="cls-4" x="138.1" y="2.8" width="66.9" height="6.6"/><text class="cls-13" transform="translate(154.97 7.35)">Subcategories</text><line class="cls-14" x1="138.1" y1="22.8" x2="205" y2="22.8"/><line class="cls-14" x1="138.1" y1="14.8" x2="205" y2="14.8"/><line class="cls-14" x1="138.1" y1="18.8" x2="205" y2="18.8"/><path class="cls-2" d="M298.6,12.6V40.3H228.4V12.6h70.2m1-1H227.4V41.3h72.2V11.6Z" transform="translate(-19.8 -11.6)"/><rect class="cls-4" x="210.2" y="2.8" width="66.9" height="6.6"/><text class="cls-13" transform="translate(216.94 7.83)">Informative References</text><line class="cls-14" x1="210.2" y1="22.8" x2="277.2" y2="22.8"/><line class="cls-14" x1="210.2" y1="14.8" x2="277.2" y2="14.8"/><line class="cls-14" x1="210.2" y1="18.8" x2="277.2" y2="18.8"/><path class="cls-2" d="M154.2,42.2V69.9H84.1V42.2h70.1m1-1H83.1V70.9h72.2V41.2Z" transform="translate(-19.8 -11.6)"/><rect class="cls-8" x="65.9" y="32.5" width="66.9" height="6.6"/><text class="cls-13" transform="translate(86.89 37.05)">Categories</text><line class="cls-14" x1="65.9" y1="44.5" x2="132.8" y2="44.5"/><line class="cls-14" x1="65.9" y1="51.5" x2="132.8" y2="51.5"/><path class="cls-2" d="M226.4,42.2V69.9H156.2V42.2h70.2m1-1H155.2V70.9h72.2V41.2Z" transform="translate(-19.8 -11.6)"/><rect class="cls-8" x="138.1" y="32.5" width="66.9" height="6.6"/><text class="cls-13" transform="translate(154.97 37.05)">Subcategories</text><line class="cls-14" x1="138.1" y1="52.5" x2="205" y2="52.5"/><line class="cls-14" x1="138.1" y1="44.5" x2="205" y2="44.5"/><line class="cls-14" x1="138.1" y1="48.5" x2="205" y2="48.5"/><path class="cls-2" d="M298.6,42.2V69.9H228.4V42.2h70.2m1-1H227.4V70.9h72.2V41.2Z" transform="translate(-19.8 -11.6)"/><rect class="cls-8" x="210.2" y="32.5" width="66.9" height="6.6"/><text class="cls-13" transform="translate(216.94 37.53)">Informative References</text><line class="cls-14" x1="210.2" y1="52.5" x2="277.2" y2="52.5"/><line class="cls-14" x1="210.2" y1="44.5" x2="277.2" y2="44.5"/><line class="cls-14" x1="210.2" y1="48.5" x2="277.2" y2="48.5"/><path class="cls-2" d="M154.1,72V99.7H84V72h70.1m1-1H83v29.7h72.2V71Z" transform="translate(-19.8 -11.6)"/><rect class="cls-10" x="65.8" y="62.2" width="66.9" height="6.6"/><text class="cls-13" transform="translate(86.79 66.75)">Categories</text><line class="cls-14" x1="65.8" y1="74.2" x2="132.7" y2="74.2"/><line class="cls-14" x1="65.8" y1="81.2" x2="132.7" y2="81.2"/><path class="cls-2" d="M226.3,72V99.7H156.1V72h70.2m1-1H155.1v29.7h72.2V71Z" transform="translate(-19.8 -11.6)"/><rect class="cls-10" x="137.9" y="62.2" width="66.9" height="6.6"/><text class="cls-13" transform="translate(154.77 66.75)">Subcategories</text><line class="cls-14" x1="137.9" y1="82.2" x2="204.9" y2="82.2"/><line class="cls-14" x1="137.9" y1="74.2" x2="204.9" y2="74.2"/><line class="cls-14" x1="137.9" y1="78.2" x2="204.9" y2="78.2"/><path class="cls-2" d="M298.4,72V99.7H228.2V72h70.2m1-1H227.2v29.7h72.2V71Z" transform="translate(-19.8 -11.6)"/><rect class="cls-10" x="210.1" y="62.2" width="66.9" height="6.6"/><text class="cls-13" transform="translate(216.84 67.23)">Informative References</text><line class="cls-14" x1="210.1" y1="82.2" x2="277" y2="82.2"/><line class="cls-14" x1="210.1" y1="74.2" x2="277" y2="74.2"/><line class="cls-14" x1="210.1" y1="78.2" x2="277" y2="78.2"/><path class="cls-2" d="M154.2,101.7v27.7H84.1V101.7h70.1m1-1H83.1v29.7h72.2V100.7Z" transform="translate(-19.8 -11.6)"/><rect class="cls-11" x="65.9" y="92" width="66.9" height="6.6"/><text class="cls-13" transform="translate(86.89 96.55)">Categories</text><line class="cls-14" x1="65.9" y1="103.9" x2="132.8" y2="103.9"/><line class="cls-14" x1="65.9" y1="111" x2="132.8" y2="111"/><path class="cls-2" d="M226.4,101.7v27.7H156.2V101.7h70.2m1-1H155.2v29.7h72.2V100.7Z" transform="translate(-19.8 -11.6)"/><rect class="cls-11" x="138.1" y="92" width="66.9" height="6.6"/><text class="cls-13" transform="translate(154.97 96.55)">Subcategories</text><line class="cls-14" x1="138.1" y1="111.9" x2="205" y2="111.9"/><line class="cls-14" x1="138.1" y1="103.9" x2="205" y2="103.9"/><line class="cls-14" x1="138.1" y1="107.9" x2="205" y2="107.9"/><path class="cls-2" d="M298.6,101.7v27.7H228.4V101.7h70.2m1-1H227.4v29.7h72.2V100.7Z" transform="translate(-19.8 -11.6)"/><rect class="cls-11" x="210.2" y="92" width="66.9" height="6.6"/><text class="cls-13" transform="translate(216.94 97.03)">Informative References</text><line class="cls-14" x1="210.2" y1="111.9" x2="277.2" y2="111.9"/><line class="cls-14" x1="210.2" y1="103.9" x2="277.2" y2="103.9"/><line class="cls-14" x1="210.2" y1="107.9" x2="277.2" y2="107.9"/><path class="cls-2" d="M154.2,131.4v27.7H84.1V131.4h70.1m1-1H83.1v29.7h72.2V130.4Z" transform="translate(-19.8 -11.6)"/><rect class="cls-12" x="65.9" y="121.7" width="66.9" height="6.6"/><text class="cls-13" transform="translate(86.89 126.25)">Categories</text><line class="cls-14" x1="65.9" y1="133.7" x2="132.8" y2="133.7"/><line class="cls-14" x1="65.9" y1="140.7" x2="132.8" y2="140.7"/><path class="cls-2" d="M226.4,131.4v27.7H156.2V131.4h70.2m1-1H155.2v29.7h72.2V130.4Z" transform="translate(-19.8 -11.6)"/><rect class="cls-12" x="138.1" y="121.7" width="66.9" height="6.6"/><text class="cls-13" transform="translate(154.97 126.25)">Subcategories</text><line class="cls-14" x1="138.1" y1="141.7" x2="205" y2="141.7"/><line class="cls-14" x1="138.1" y1="133.7" x2="205" y2="133.7"/><line class="cls-14" x1="138.1" y1="137.7" x2="205" y2="137.7"/><path class="cls-2" d="M298.6,131.4v27.7H228.4V131.4h70.2m1-1H227.4v29.7h72.2V130.4Z" transform="translate(-19.8 -11.6)"/><rect class="cls-12" x="210.2" y="121.7" width="66.9" height="6.6"/><text class="cls-13" transform="translate(216.94 126.73)">Informative References</text><line class="cls-14" x1="210.2" y1="141.7" x2="277.2" y2="141.7"/><line class="cls-14" x1="210.2" y1="133.7" x2="277.2" y2="133.7"/><line class="cls-14" x1="210.2" y1="137.7" x2="277.2" y2="137.7"/></svg>