<svg id="Livello_1" data-name="Livello 1" xmlns="http://www.w3.org/2000/svg" xmlns:xlink="http://www.w3.org/1999/xlink" viewBox="0 0 543.76 282.42"><defs><style>.cls-1,.cls-11{font-size:11px;}.cls-1,.cls-27{fill:#0099cd;}.cls-1,.cls-11,.cls-18,.cls-22,.cls-24,.cls-26,.cls-27{font-family:Arial-BoldMT, Arial;font-weight:700;}.cls-2{letter-spacing:-0.02em;}.cls-20,.cls-3,.cls-5,.cls-7{fill:none;}.cls-3{stroke:#82368c;}.cls-10,.cls-12,.cls-13,.cls-14,.cls-15,.cls-16,.cls-17,.cls-20,.cls-3,.cls-5,.cls-7,.cls-9{stroke-miterlimit:10;stroke-width:2px;}.cls-3,.cls-5,.cls-7{stroke-dasharray:5 5;}.cls-4{fill:#82368c;}.cls-5{stroke:#e73d51;}.cls-22,.cls-6{fill:#e73d51;}.cls-7{stroke:#2fac66;}.cls-8{fill:#2fac66;}.cls-14,.cls-21,.cls-9{fill:#fcc016;}.cls-9{stroke:#0099cd;}.cls-10{fill:#1d1d1b;}.cls-10,.cls-12,.cls-13,.cls-14,.cls-15,.cls-16,.cls-17{stroke:#fbbf19;}.cls-11,.cls-18{fill:#fff;}.cls-12{fill:#e73c51;}.cls-13{fill:#f3a147;}.cls-15{fill:#b6c017;}.cls-16{fill:#00b0ab;}.cls-17{fill:url(#Sfumatura_senza_nome_53);}.cls-18,.cls-22,.cls-24,.cls-26{font-size:7px;}.cls-19{letter-spacing:-0.07em;}.cls-20{stroke:#fcc016;}.cls-23{letter-spacing:-0.02em;}.cls-24{fill:#30ac67;}.cls-25{letter-spacing:-0.09em;}.cls-26{fill:#82378c;}.cls-27{font-size:8px;}</style><linearGradient id="Sfumatura_senza_nome_53" x1="16.84" y1="262.78" x2="528.66" y2="262.78" gradientUnits="userSpaceOnUse"><stop offset="0"/><stop offset="0.03" stop-color="#090303"/><stop offset="0.07" stop-color="#23090c"/><stop offset="0.13" stop-color="#4d141b"/><stop offset="0.2" stop-color="#87242f"/><stop offset="0.28" stop-color="#d03749"/><stop offset="0.3" stop-color="#e73d51"/><stop offset="0.58" stop-color="#fcc016"/><stop offset="0.83" stop-color="#00b0ab"/></linearGradient></defs><text class="cls-1" transform="translate(9.44 177.38) rotate(-90)">COST &amp; COMPLEXIT<tspan class="cls-2" x="108.78" y="0">Y</tspan></text><path class="cls-3" d="M78,205.2S235-1.64,520.16,83.82" transform="translate(-21.49 -19.27)"/><polygon class="cls-4" points="496.12 68.51 504.85 66.44 498.69 59.91 496.12 68.51"/><path class="cls-5" d="M52.46,42.6S154,57.93,182.33,73.32s53.39,18.62,83.32,36.42c29.45,17.51,124.26,73.38,254.23,76" transform="translate(-21.49 -19.27)"/><polygon class="cls-6" points="496.99 170.85 504.85 166.51 497.17 161.88 496.99 170.85"/><path class="cls-7" d="M70.69,120.26s81.63,11.32,107.15,25.89,177.54,78.19,268.56,74.42c46.62-1.92,84.61,17.57,98.29,25.68" transform="translate(-21.49 -19.27)"/><polygon class="cls-8" points="519.69 230.15 528.66 230.43 524.41 222.52 519.69 230.15"/><rect class="cls-9" x="170.47" y="21.09" width="6.47" height="223.82"/><rect class="cls-10" x="27.63" y="204.06" width="57.66" height="32.93"/><text class="cls-11" transform="translate(38.75 224.47)">CMM 0</text><rect class="cls-12" x="95.78" y="168.46" width="57.66" height="32.93"/><text class="cls-11" transform="translate(106.9 188.87)">CMM 1</text><rect class="cls-13" x="185.13" y="130.17" width="57.66" height="32.93"/><text class="cls-11" transform="translate(196.25 150.58)">CMM 2</text><rect class="cls-14" x="278.95" y="92.42" width="57.66" height="32.93"/><text class="cls-11" transform="translate(290.07 112.82)">CMM 3</text><rect class="cls-15" x="359.86" y="53.05" width="57.66" height="32.93"/><text class="cls-11" transform="translate(370.99 73.45)">CMM 4</text><rect class="cls-16" x="452.4" y="12.6" width="57.66" height="32.93"/><text class="cls-11" transform="translate(463.52 33)">CMM 5</text><rect class="cls-17" x="16.84" y="244.14" width="511.82" height="37.28"/><text class="cls-18" transform="translate(30.23 260.71)">NON-EXISTENT<tspan x="5.83" y="8.4">PRACTICES</tspan></text><text class="cls-18" transform="translate(110.53 260.71)">AD-HOC<tspan x="-6.23" y="8.4">PRACTICES</tspan></text><text class="cls-18" transform="translate(171.4 260.71)">REQUIREMENTS-DRIVEN<tspan x="22.36" y="8.4">PRACTICES</tspan></text><text class="cls-18" transform="translate(275.27 260.71)">ENTERPRISE-WIDE<tspan x="-0.45" y="8.4">S</tspan><tspan class="cls-19" x="4.22" y="8.4">T</tspan><tspan x="7.98" y="8.4">ANDARDIZ</tspan><tspan class="cls-19" x="44.53" y="8.4">A</tspan><tspan x="49.06" y="8.4">TION</tspan></text><text class="cls-18" transform="translate(361.01 260.71)">METRICS-DRIVE<tspan x="7.39" y="8.4">PRACTICES</tspan></text><text class="cls-18" transform="translate(455.15 260.71)">WORLD-CLASS<tspan x="6.02" y="8.4">PRACTICES</tspan></text><polyline class="cls-20" points="537.3 244.14 16.84 244.14 16.84 6.46"/><polygon class="cls-21" points="535.99 239.66 543.76 244.14 535.99 248.63 535.99 239.66"/><polygon class="cls-21" points="21.32 7.77 16.84 0 12.35 7.77 21.32 7.77"/><text class="cls-22" transform="translate(30.59 11.54)">RISK</text><text class="cls-22" transform="translate(109.1 23.32)">EXCESSIVE<tspan x="-2.65" y="8.4">RISK </tspan><tspan class="cls-19" x="16.02" y="8.4">T</tspan><tspan x="19.78" y="8.4">AKING</tspan></text><text class="cls-22" transform="translate(368.17 128.65)">OPTIMA<tspan class="cls-23" x="27.22" y="0">L</tspan><tspan x="-6.81" y="8.4">RISK </tspan><tspan class="cls-19" x="11.86" y="8.4">T</tspan><tspan x="15.62" y="8.4">AKING</tspan></text><text class="cls-24" transform="translate(35.48 83.33)">PROCESS<tspan x="-5.05" y="8.4">REVIEW LAG</tspan></text><text class="cls-24" transform="translate(99.13 92.41)">LITLE OR NO<tspan x="1.55" y="8.4">OVERSIGHT</tspan></text><text class="cls-24" transform="translate(257.85 142.56)">ANNUA<tspan class="cls-23" x="25.28" y="0">L</tspan><tspan x="-1.43" y="8.4">REVIEWS</tspan></text><text class="cls-24" transform="translate(333.04 180.85)">MONTH<tspan class="cls-25" x="25.66" y="0">L</tspan><tspan class="cls-23" x="29.3" y="0">Y</tspan><tspan x="33.84" y="0" xml:space="preserve"> / QUARTER</tspan><tspan class="cls-25" x="74.28" y="0">L</tspan><tspan class="cls-23" x="77.92" y="0">Y</tspan><tspan x="25.09" y="8.4">REVIEWS</tspan></text><text class="cls-24" transform="translate(474.91 194.91)">NEAR REAL-TIME<tspan x="3.95" y="8.4">(AI/M</tspan><tspan class="cls-23" x="21.06" y="8.4">L</tspan><tspan x="25.21" y="8.4" xml:space="preserve"> DRIVEN)</tspan></text><text class="cls-26" transform="translate(20.92 159.6)">S<tspan class="cls-19" x="4.67" y="0">T</tspan><tspan x="8.43" y="0">AKEHOLDER</tspan><tspan class="cls-19" x="14.78" y="8.4">V</tspan><tspan x="18.93" y="8.4">ALUE</tspan></text><text class="cls-26" transform="translate(307.8 26.62)">OPTIMA<tspan class="cls-23" x="27.22" y="0">L</tspan><tspan x="-17.12" y="8.4">PERCEIVED </tspan><tspan class="cls-19" x="25.28" y="8.4">V</tspan><tspan x="29.43" y="8.4">ALUE</tspan></text><text class="cls-26" transform="translate(442.06 73.45)">DIMINISHING<tspan x="-10.83" y="8.4">PERCEIVED </tspan><tspan class="cls-19" x="31.57" y="8.4">V</tspan><tspan x="35.72" y="8.4">ALUE</tspan></text><text class="cls-27" transform="translate(165.38 238.38) rotate(-90)">NEGLIGENCE THRESHOLD</text></svg>